<?xml version="1.0" standalone="no"?>
<!DOCTYPE svg PUBLIC "-//W3C//DTD SVG 1.1//EN" "http://www.w3.org/Graphics/SVG/1.1/DTD/svg11.dtd" >
<svg xmlns="http://www.w3.org/2000/svg" xmlns:xlink="http://www.w3.org/1999/xlink" version="1.1">
<metadata>
Created by FontForge 20170910 at Mon Dec 10 14:09:35 2012
 By Jimmy Wärting
Copyright (c) 1990 Adobe Systems Incorporated.  All Rights Reserved.Helvetica is a trademark of Linotype AG and/or its subsidiaries.
</metadata>
<defs>
<font id="HelveticaNeueCondensed-CondensedRegular" horiz-adv-x="204" >
  <font-face 
    font-family="HelveticaNeue Condensed"
    font-weight="400"
    font-stretch="condensed"
    units-per-em="1000"
    panose-1="2 0 5 6 5 0 0 2 0 4"
    ascent="800"
    descent="-200"
    x-height="536"
    cap-height="714"
    bbox="-164 -212 1000 932"
    underline-thickness="50"
    underline-position="-100"
    unicode-range="U+0020-FB02"
  />
<missing-glyph horiz-adv-x="240" 
 />
    <glyph glyph-name=".notdef" horiz-adv-x="240" 
 />
    <glyph glyph-name=".null" horiz-adv-x="0" 
 />
    <glyph glyph-name="nonmarkingreturn" horiz-adv-x="240" 
 />
    <glyph glyph-name="space" unicode=" " horiz-adv-x="240" 
 />
    <glyph glyph-name="space" unicode="&#xa0;" horiz-adv-x="240" 
 />
    <glyph glyph-name="numbersign" unicode="#" horiz-adv-x="480" 
d="M105 205h-82v66h90l19 154h-87v66h96l25 203h66l-25 -203h106l25 203h66l-25 -203h78v-66h-87l-19 -154h83v-66h-91l-26 -205h-66l26 205h-106l-26 -205h-66zM179 271h106l19 154h-106z" />
    <glyph glyph-name="dollar" unicode="$" horiz-adv-x="480" 
d="M259 58q47 4 77.5 36.5t30.5 84.5q0 28 -8.5 48t-23 35t-34.5 25.5t-42 18.5v-248zM217 636q-46 -6 -70.5 -34t-24.5 -77q0 -51 27 -77.5t68 -42.5v231zM217 766h42v-58q92 -5 135 -53.5t45 -140.5h-88q0 49 -20 83t-72 39v-245q34 -12 70 -24t64.5 -32.5t47 -54
t18.5 -87.5q0 -56 -18 -94.5t-46.5 -63t-64 -36t-71.5 -13.5v-94h-42v94q-57 2 -94.5 18.5t-60 46t-32 71.5t-9.5 96h88q0 -27 2 -54t12.5 -49.5t32.5 -37.5t61 -19v262q-34 11 -67.5 23.5t-60 34t-43 54.5t-16.5 84q0 24 6.5 55.5t26.5 60.5t57 50.5t97 25.5v58z" />
    <glyph glyph-name="percent" unicode="%" horiz-adv-x="759" 
d="M177 378q21 0 33 10t17.5 28t7 43.5t1.5 56.5t-1.5 56.5t-7 43.5t-17.5 28t-33 10t-33 -10t-17.5 -28t-7 -43.5t-1.5 -56.5t1.5 -56.5t7 -43.5t17.5 -28t33 -10zM496 708h70l-310 -722h-70zM582 40q21 0 33 10t17.5 28t7 43.5t1.5 56.5t-1.5 56.5t-7 43.5t-17.5 28
t-33 10t-33 -10t-17.5 -28t-7 -43.5t-1.5 -56.5t1.5 -56.5t7 -43.5t17.5 -28t33 -10zM177 324q-45 0 -71 16t-39.5 42.5t-17 61t-3.5 72.5q0 37 3.5 72t17 61.5t39.5 42.5t71 16t71 -16t39.5 -42.5t17 -61.5t3.5 -72q0 -38 -3.5 -72.5t-17 -61t-39.5 -42.5t-71 -16zM582 -14
q-45 0 -71 16t-39.5 42.5t-17 61t-3.5 72.5q0 37 3.5 72t17 61.5t39.5 42.5t71 16t71 -16t39.5 -42.5t17 -61.5t3.5 -72q0 -38 -3.5 -72.5t-17 -61t-39.5 -42.5t-71 -16z" />
    <glyph glyph-name="ampersand" unicode="&#x26;" horiz-adv-x="556" 
d="M257 471q24 23 44 47t20 60q0 31 -20 50.5t-52 19.5t-51.5 -19.5t-19.5 -50.5q0 -24 13 -50t30 -51l17 -24zM215 354q-43 -26 -72.5 -66t-29.5 -97q0 -33 10.5 -57.5t28.5 -41.5t42 -25.5t50 -8.5q42 0 72 20t56 49zM416 198q11 27 17.5 59t10.5 80h78q0 -20 -5.5 -50
t-13.5 -60.5t-18.5 -57.5t-20.5 -40l92 -129h-95l-48 67q-21 -20 -40 -35t-39.5 -25t-44 -15.5t-52.5 -5.5q-65 0 -106.5 22t-65 53t-32 65t-8.5 58q0 56 26.5 103.5t70.5 81.5l52 39l-22 36q-20 30 -36 61t-16 69q0 31 11.5 57t32 44.5t47.5 28.5t57 10q68 0 109.5 -31.5
t41.5 -104.5q0 -26 -8.5 -48t-22 -41t-31.5 -35.5t-36 -31.5l-26 -22z" />
    <glyph glyph-name="quoteright" unicode="&#x2019;" horiz-adv-x="240" 
d="M74 714h92v-87q0 -29 -2.5 -55t-11.5 -48t-27.5 -38.5t-50.5 -25.5v47q26 13 35 30t9 47v24h-44v106z" />
    <glyph glyph-name="parenleft" unicode="(" horiz-adv-x="241" 
d="M237 714q-61 -100 -85.5 -216t-24.5 -233q0 -122 27 -231.5t83 -217.5h-48q-71 97 -108.5 213.5t-37.5 235.5q0 120 37 235.5t109 213.5h48z" />
    <glyph glyph-name="parenright" unicode=")" horiz-adv-x="241" 
d="M4 -184q61 100 85.5 216t24.5 233q0 122 -27 231.5t-83 217.5h48q71 -97 108.5 -213.5t37.5 -235.5q0 -120 -37 -235.5t-109 -213.5h-48z" />
    <glyph glyph-name="asterisk" unicode="*" horiz-adv-x="352" 
d="M146 714h60v-119l107 41l22 -58l-113 -34l76 -94l-50 -37l-72 102l-72 -102l-50 37l76 94l-113 34l22 58l107 -41v119z" />
    <glyph glyph-name="plus" unicode="+" horiz-adv-x="600" 
d="M267 220h-220v66h220v220h66v-220h220v-66h-220v-220h-66v220z" />
    <glyph glyph-name="comma" unicode="," horiz-adv-x="240" 
d="M74 106h92v-87q0 -29 -2.5 -55t-11.5 -48t-27.5 -38.5t-50.5 -25.5v47q26 13 35 30t9 47v24h-44v106z" />
    <glyph glyph-name="hyphen" unicode="-" horiz-adv-x="352" 
d="M54 323h244v-78h-244v78z" />
    <glyph glyph-name="hyphen" unicode="&#xad;" horiz-adv-x="352" 
d="M54 323h244v-78h-244v78z" />
    <glyph glyph-name="period" unicode="." horiz-adv-x="240" 
d="M74 106h92v-106h-92v106z" />
    <glyph glyph-name="slash" unicode="/" horiz-adv-x="278" 
d="M222 728h66l-232 -742h-66z" />
    <glyph glyph-name="zero" unicode="0" horiz-adv-x="480" 
d="M240 -14q-48 0 -81.5 15t-56 40.5t-35.5 60.5t-19.5 74.5t-8 82.5t-1.5 85q0 39 1.5 81t8 82.5t19.5 77t35.5 64t56 43.5t81.5 16q72 0 112.5 -32.5t60.5 -84.5t24.5 -117t4.5 -130q0 -56 -4.5 -119t-24.5 -116t-60.5 -88t-112.5 -35zM126 344q0 -56 2.5 -108.5t14 -93.5
t34 -65.5t63.5 -24.5q40 0 63 24.5t34.5 65.5t14 93.5t2.5 108.5q0 58 -2.5 112t-14 95.5t-34.5 66t-63 24.5q-41 0 -63.5 -24.5t-34 -66t-14 -95.5t-2.5 -112z" />
    <glyph glyph-name="one" unicode="1" horiz-adv-x="480" 
d="M67 592q33 2 64 6t55 16t39 34t17 60h60v-708h-84v532h-151v60z" />
    <glyph glyph-name="two" unicode="2" horiz-adv-x="480" 
d="M438 0h-396q0 49 13 91t34 78t48.5 65.5t57.5 55.5l58 49q21 18 38.5 36t30 38t19 43.5t6.5 52.5q0 23 -5.5 45.5t-17.5 40.5t-32 29.5t-48 11.5q-41 0 -63.5 -18.5t-33.5 -43t-13 -50.5t-2 -41h-88q0 50 11 91.5t35 71t62.5 46t92.5 16.5q61 0 98.5 -21t58 -50.5t27 -62
t6.5 -55.5q0 -41 -8.5 -72.5t-24 -59t-38.5 -52t-53 -49.5l-100 -87q-29 -25 -49 -55.5t-28 -65.5h304v-78z" />
    <glyph glyph-name="three" unicode="3" horiz-adv-x="480" 
d="M180 399h44q56 0 82 36t26 89q0 24 -5 45.5t-15.5 37.5t-28.5 25.5t-43 9.5q-35 0 -55 -14.5t-30.5 -35.5t-13.5 -45t-3 -43h-88q0 45 11 82.5t34 64.5t58.5 42t84.5 15q55 0 90.5 -17.5t56 -44.5t28 -59.5t7.5 -62.5q0 -54 -27 -96t-83 -56v-2q60 -12 95.5 -51.5
t35.5 -113.5q0 -48 -12.5 -88.5t-37 -69.5t-62.5 -45t-89 -16q-48 0 -81 12.5t-55.5 31.5t-35.5 42.5t-19.5 45.5t-8 39.5t-1.5 25.5v9h88q0 -24 6.5 -49t20 -45.5t35 -33t51.5 -12.5q19 0 39.5 6t36.5 22t26.5 44.5t10.5 73.5q0 63 -31 99t-97 36h-45v66z" />
    <glyph glyph-name="four" unicode="4" horiz-adv-x="480" 
d="M106 243h180v327h-2zM286 708h84v-465h80v-72h-80v-171h-84v171h-256v79z" />
    <glyph glyph-name="five" unicode="5" horiz-adv-x="480" 
d="M97 694h316v-78h-249l-28 -205l2 -2q22 26 55 39.5t69 13.5q80 0 129 -60.5t49 -172.5q0 -50 -11.5 -94t-36 -77t-64 -52.5t-94.5 -19.5q-63 0 -101 22.5t-59 54t-27.5 65t-6.5 54.5h88q0 -14 3.5 -36t15 -43t33 -36t56.5 -15q37 0 60 18.5t35.5 46.5t16.5 60t4 59
q0 29 -6 58t-19.5 51.5t-36.5 36.5t-56 14q-23 0 -41.5 -8.5t-31.5 -19.5t-20 -23t-7 -18l-76 4z" />
    <glyph glyph-name="six" unicode="6" horiz-adv-x="480" 
d="M341 538q0 45 -24 74.5t-69 29.5q-44 0 -69 -28t-37.5 -64.5t-15.5 -71.5t-3 -49v-56h2q5 10 16 23.5t27.5 26t39.5 21t52 8.5q46 0 80.5 -16.5t58 -46t35 -70.5t11.5 -91q0 -51 -12.5 -95.5t-38 -77t-63 -51t-86.5 -18.5t-83.5 14.5t-58 40t-37 58.5t-20.5 70.5t-9 76.5
t-2 76q0 40 1.5 84.5t8.5 87.5t20.5 82t37.5 68t60 46.5t87 17.5q62 0 97.5 -22t53.5 -50.5t23 -57t5 -40.5h-88zM133 216q0 -28 5 -57t18 -53t34.5 -39t54.5 -15t54.5 15t34.5 39t18 53t5 57t-4.5 57t-16.5 53t-34 39t-57 15t-57 -15t-34 -39t-16.5 -53t-4.5 -57z" />
    <glyph glyph-name="seven" unicode="7" horiz-adv-x="480" 
d="M38 694h404v-73q-29 -38 -67.5 -100.5t-71.5 -142.5q-34 -82 -60.5 -175.5t-36.5 -202.5h-98q10 81 31.5 162t54.5 160q64 158 168 294h-324v78z" />
    <glyph glyph-name="eight" unicode="8" horiz-adv-x="480" 
d="M37 195q0 141 125 182q-54 22 -78.5 58t-24.5 93q0 86 48 133t133 47t133 -47t48 -133q0 -57 -24.5 -93t-78.5 -58q125 -41 125 -182q0 -35 -9.5 -72t-32.5 -67.5t-62 -50t-99 -19.5t-99 19.5t-62 50t-32.5 67.5t-9.5 72zM240 642q-49 0 -71 -32.5t-22 -83.5
q0 -50 22 -83t71 -33q48 0 70.5 33t22.5 83q0 51 -22.5 83.5t-70.5 32.5zM125 198q0 -31 6.5 -58t20.5 -46.5t35.5 -30.5t52.5 -11t52.5 11t35.5 30.5t20.5 46.5t6.5 58t-6.5 58t-20.5 46.5t-35.5 30.5t-52.5 11t-52.5 -11t-35.5 -30.5t-20.5 -46.5t-6.5 -58z" />
    <glyph glyph-name="nine" unicode="9" horiz-adv-x="480" 
d="M139 156q0 -44 24 -74t69 -30q44 0 69 28t37.5 65t15.5 71.5t3 48.5v56h-2q-5 -10 -16 -23.5t-27.5 -26t-39.5 -21t-52 -8.5q-46 0 -80.5 16.5t-58 46t-35 70.5t-11.5 91q0 51 12.5 95.5t38 77t62.5 51t87 18.5q49 0 83.5 -15t58 -40t37 -58.5t20.5 -70.5t9 -76.5
t2 -75.5q0 -40 -1.5 -84.5t-8.5 -87.5t-20.5 -82t-37.5 -68t-60 -46.5t-87 -17.5q-62 0 -97.5 22t-53.5 50.5t-23 57t-5 40.5h88zM347 478q0 28 -5 57t-18 53t-34.5 39t-54.5 15t-54.5 -15t-34.5 -39t-18 -53t-5 -57t4.5 -57t16.5 -53t34 -39t57 -15t57 15t34 39t16.5 53
t4.5 57z" />
    <glyph glyph-name="colon" unicode=":" horiz-adv-x="240" 
d="M74 506h92v-106h-92v106zM74 106h92v-106h-92v106z" />
    <glyph glyph-name="semicolon" unicode=";" horiz-adv-x="240" 
d="M74 106h92v-87q0 -29 -2.5 -55t-11.5 -48t-27.5 -38.5t-50.5 -25.5v47q26 13 35 30t9 47v24h-44v106zM74 506h92v-106h-92v106z" />
    <glyph glyph-name="less" unicode="&#x3c;" horiz-adv-x="600" 
d="M47 283l506 231v-66l-428 -195l428 -195v-66l-506 231v60z" />
    <glyph glyph-name="equal" unicode="=" horiz-adv-x="600" 
d="M47 388h506v-66h-506v66zM47 184h506v-66h-506v66z" />
    <glyph glyph-name="greater" unicode="&#x3e;" horiz-adv-x="600" 
d="M47 58l428 195l-428 195v66l506 -231v-60l-506 -231v66z" />
    <glyph glyph-name="question" unicode="?" horiz-adv-x="444" 
d="M35 504q0 44 11 83.5t33.5 69.5t58 47.5t83.5 17.5q45 0 80 -14.5t59 -39.5t36.5 -59.5t12.5 -74.5q0 -38 -13 -75t-37 -66q-4 -5 -15.5 -17.5t-24 -27t-24 -27t-14.5 -16.5q-19 -24 -25.5 -50.5t-6.5 -49.5v-19h-78q0 30 2.5 63t16.5 60q9 16 22.5 34t28 35t28 32.5
t22.5 26.5q17 23 23.5 45.5t6.5 56.5q0 22 -6 42t-18 35.5t-30.5 24.5t-42.5 9q-36 0 -57 -16t-31.5 -38.5t-13.5 -48t-3 -43.5h-84zM165 96h92v-96h-92v96z" />
    <glyph glyph-name="at" unicode="@" horiz-adv-x="800" 
d="M240 293q0 -42 26.5 -69t67.5 -27q35 0 63.5 22.5t49 55t31.5 69t11 65.5q0 17 -5.5 34.5t-16 32t-25.5 24t-34 9.5q-36 0 -67 -20.5t-53.5 -52.5t-35 -70t-12.5 -73zM546 550h56l-84 -282q-4 -13 -6.5 -23.5t-2.5 -21.5t7.5 -18.5t21.5 -7.5q34 0 64.5 18.5t53 49
t36 69.5t13.5 81q0 57 -23.5 103.5t-65 79.5t-97 51.5t-119.5 18.5q-65 0 -120.5 -24t-96.5 -66t-64.5 -98.5t-23.5 -122.5q0 -67 23.5 -124t64.5 -98.5t96.5 -65t120.5 -23.5q93 0 161.5 28t109.5 83h63q-48 -83 -133 -127t-201 -44q-77 0 -144.5 29t-118 79.5t-79.5 118
t-29 144.5t29 144.5t79.5 118t118 79.5t144.5 29q81 0 149 -23t117.5 -64t77 -98t27.5 -124q0 -65 -23.5 -117t-61 -89t-83.5 -56.5t-90 -19.5q-30 0 -48 14t-22 45h-2q-23 -24 -52 -41.5t-73 -17.5q-27 0 -53 11t-45.5 30.5t-31.5 47.5t-12 61q0 52 16.5 102.5t47.5 90.5
t74 64.5t96 24.5q37 0 67.5 -18t46.5 -64h2z" />
    <glyph glyph-name="A" unicode="A" horiz-adv-x="500" 
d="M198 714h118l192 -714h-92l-51 196h-228l-53 -196h-92zM155 268h192l-91 345h-2z" />
    <glyph glyph-name="B" unicode="B" horiz-adv-x="519" 
d="M146 72h120q35 0 59 11t38.5 29t21 42t6.5 50q0 37 -11 62.5t-30 42t-44.5 24t-54.5 7.5h-105v-268zM58 714h219q35 0 68 -9t58.5 -30.5t41 -56.5t15.5 -87q0 -24 -7 -48t-20.5 -44t-33 -35t-43.5 -22v-2q66 -16 96.5 -63t30.5 -113q0 -109 -59.5 -156.5t-171.5 -47.5
h-194v714zM146 406h101q14 0 34.5 3t40 15t33 36t13.5 65q0 56 -29 86.5t-94 30.5h-99v-236z" />
    <glyph glyph-name="C" unicode="C" horiz-adv-x="519" 
d="M495 245q-3 -51 -15.5 -97.5t-37.5 -82.5t-65.5 -57.5t-98.5 -21.5q-76 0 -121.5 32.5t-69.5 85.5t-31.5 119t-7.5 134q0 67 8 133.5t33 119.5t70 85.5t119 32.5q109 0 158.5 -58.5t52.5 -163.5h-92q-1 30 -7 57.5t-19.5 48t-36 32.5t-56.5 12q-46 0 -73 -23.5t-41.5 -64
t-19 -95t-4.5 -116.5t4.5 -116.5t19 -95t41.5 -64t73 -23.5q40 0 64 17t37.5 44t18 60t5.5 66h92z" />
    <glyph glyph-name="D" unicode="D" horiz-adv-x="556" 
d="M155 72h92q57 0 90.5 26.5t51 67.5t22.5 91.5t5 98.5q0 52 -4 103t-20.5 91.5t-50.5 66t-94 25.5h-92v-570zM67 714h191q83 0 132.5 -28t75.5 -76.5t34 -113.5t8 -139q0 -68 -10 -132t-37 -114t-74 -80.5t-120 -30.5h-200v714z" />
    <glyph glyph-name="E" unicode="E" horiz-adv-x="463" 
d="M58 714h369v-78h-281v-224h265v-78h-265v-256h293v-78h-381v714z" />
    <glyph glyph-name="F" unicode="F" horiz-adv-x="444" 
d="M58 714h369v-78h-281v-224h265v-78h-265v-334h-88v714z" />
    <glyph glyph-name="glyph40" horiz-adv-x="537" 
d="M397 516q-2 28 -8.5 53.5t-20 44.5t-35.5 30.5t-55 11.5q-46 0 -73 -23.5t-41.5 -64t-19 -95t-4.5 -116.5t4.5 -116.5t19 -95t41.5 -64t73 -23.5t72 24.5t39 60.5t16.5 78t3.5 78h-141v72h221v-371h-66v97h-2q-14 -46 -54.5 -78.5t-99.5 -32.5q-70 0 -113 31t-66.5 82.5
t-31.5 118.5t-8 139q0 67 8 133.5t33 119.5t70 85.5t119 32.5q51 0 86.5 -13t59 -33.5t36.5 -45.5t19.5 -48.5t8 -43t1.5 -28.5h-92z" />
    <glyph glyph-name="H" unicode="H" horiz-adv-x="537" 
d="M479 0h-88v344h-245v-344h-88v714h88v-292h245v292h88v-714z" />
    <glyph glyph-name="I" unicode="I" 
d="M58 714h88v-714h-88v714z" />
    <glyph glyph-name="J" unicode="J" horiz-adv-x="426" 
d="M368 205q0 -48 -7.5 -88t-27 -69t-54.5 -45.5t-90 -16.5q-45 0 -76.5 13.5t-51.5 36t-29.5 52t-9.5 61.5v59h84v-52q0 -44 18.5 -71t63.5 -27q30 0 48 9.5t28 28.5t13 47t3 65v506h88v-509z" />
    <glyph glyph-name="K" unicode="K" horiz-adv-x="500" 
d="M58 714h88v-346h2l247 346h98l-216 -298l234 -416h-98l-193 344l-74 -101v-243h-88v714z" />
    <glyph glyph-name="L" unicode="L" horiz-adv-x="444" 
d="M58 714h88v-636h290v-78h-378v714z" />
    <glyph glyph-name="M" unicode="M" horiz-adv-x="704" 
d="M60 714h148l143 -566h2l143 566h148v-714h-88v624h-2l-158 -624h-88l-158 624h-2v-624h-88v714z" />
    <glyph glyph-name="N" unicode="N" horiz-adv-x="556" 
d="M58 714h114l236 -596h2v596h88v-714h-121l-229 578h-2v-578h-88v714z" />
    <glyph glyph-name="O" unicode="O" horiz-adv-x="556" 
d="M278 728q74 0 119 -32.5t70 -85.5t33 -119.5t8 -133.5q0 -68 -8 -134t-33 -119t-70 -85.5t-119 -32.5t-119 32.5t-70 85.5t-33 119t-8 134q0 67 8 133.5t33 119.5t70 85.5t119 32.5zM278 656q-46 0 -73 -23.5t-41.5 -64t-19 -95t-4.5 -116.5t4.5 -116.5t19 -95t41.5 -64
t73 -23.5t73 23.5t41.5 64t19 95t4.5 116.5t-4.5 116.5t-19 95t-41.5 64t-73 23.5z" />
    <glyph glyph-name="P" unicode="P" horiz-adv-x="481" 
d="M58 714h182q15 0 37.5 -1t47 -6.5t49 -18t44 -35.5t31.5 -58t12 -86q0 -50 -15 -88.5t-42.5 -65t-65.5 -40t-83 -13.5h-109v-302h-88v714zM146 374h105q48 0 83 34t35 105q0 59 -29 94t-95 35h-99v-268z" />
    <glyph glyph-name="Q" unicode="Q" horiz-adv-x="556" 
d="M401 22q-23 -17 -54 -26.5t-69 -9.5q-74 0 -119 32.5t-70 85.5t-33 119t-8 134q0 67 8 133.5t33 119.5t70 85.5t119 32.5t119 -32.5t70 -85.5t33 -119.5t8 -133.5q0 -39 -2.5 -77.5t-9 -75t-17.5 -69.5t-29 -60l72 -66l-49 -52zM274 137l49 54l66 -60q17 41 22 99t5 127
q0 62 -4.5 116.5t-19 95t-41.5 64t-73 23.5t-73 -23.5t-41.5 -64t-19 -95t-4.5 -116.5t4.5 -116.5t19 -95t41.5 -64t73 -23.5q39 0 65 17z" />
    <glyph glyph-name="R" unicode="R" horiz-adv-x="519" 
d="M58 714h231q85 0 134 -47t49 -132q0 -29 -5.5 -58t-18.5 -53.5t-34 -43t-52 -25.5v-2q47 -5 72.5 -39t28.5 -80l6 -122q1 -30 4.5 -49t8 -31.5t11 -19.5t14.5 -12h-106q-6 6 -10 17.5t-7 26.5t-4.5 30.5t-2.5 28.5l-6 111q-3 37 -13.5 57.5t-25.5 31t-32.5 13t-34.5 2.5
h-119v-318h-88v714zM146 390h87q19 0 44.5 2t48.5 15t38.5 41t15.5 80q0 53 -33.5 83.5t-95.5 30.5h-105v-252z" />
    <glyph glyph-name="S" unicode="S" horiz-adv-x="500" 
d="M361 529q0 28 -5.5 51.5t-18.5 40t-34.5 26t-52.5 9.5q-56 0 -87 -29.5t-31 -86.5q0 -50 25 -77t62.5 -43t81 -28.5t81 -33.5t62.5 -58t25 -102q0 -62 -20.5 -103t-52.5 -65t-71.5 -34t-77.5 -10q-63 0 -104.5 16t-66 46t-35 74.5t-10.5 101.5h88q0 -30 3 -59.5t16 -53.5
t40 -38.5t75 -14.5q26 0 49 9t39.5 25.5t26 39.5t9.5 52q0 38 -14.5 62t-38 40.5t-54 27t-62 21.5t-62 24.5t-54 35t-38 54.5t-14.5 82q0 25 7 58.5t29.5 64.5t63.5 52.5t109 21.5q103 0 150.5 -50t49.5 -149h-88z" />
    <glyph glyph-name="T" unicode="T" horiz-adv-x="463" 
d="M275 0h-88v636h-179v78h447v-78h-180v-636z" />
    <glyph glyph-name="U" unicode="U" horiz-adv-x="519" 
d="M50 714h88v-502q0 -79 27.5 -116.5t93.5 -37.5q70 0 96 39.5t26 114.5v502h88v-502q0 -103 -52.5 -164.5t-157.5 -61.5q-108 0 -158.5 57.5t-50.5 168.5v502z" />
    <glyph glyph-name="V" unicode="V" horiz-adv-x="462" 
d="M-2 714h92l140 -613h2l140 613h92l-180 -714h-112z" />
    <glyph glyph-name="W" unicode="W" horiz-adv-x="722" 
d="M8 714h88l109 -584h2l101 584h106l101 -584h2l109 584h88l-147 -714h-107l-98 578h-2l-103 -578h-107z" />
    <glyph glyph-name="X" unicode="X" horiz-adv-x="481" 
d="M16 714h98l130 -267l131 267h92l-178 -351l190 -363h-98l-142 286l-145 -286h-92l190 363z" />
    <glyph glyph-name="Y" unicode="Y" horiz-adv-x="462" 
d="M-2 714h97l136 -334l141 334h92l-189 -434v-280h-88v280z" />
    <glyph glyph-name="Z" unicode="Z" horiz-adv-x="463" 
d="M23 74l321 562h-303v78h395v-81l-321 -555h325v-78h-417v74z" />
    <glyph glyph-name="bracketleft" unicode="[" horiz-adv-x="259" 
d="M78 714h179v-66h-101v-766h101v-66h-179v898z" />
    <glyph glyph-name="backslash" unicode="\" horiz-adv-x="278" 
d="M-10 728h66l232 -742h-66z" />
    <glyph glyph-name="bracketright" unicode="]" horiz-adv-x="259" 
d="M181 -184h-179v66h101v766h-101v66h179v-898z" />
    <glyph glyph-name="asciicircum" unicode="^" horiz-adv-x="600" 
d="M276 694h48l229 -433h-66l-187 361l-187 -361h-66z" />
    <glyph glyph-name="underscore" unicode="_" horiz-adv-x="500" 
d="M0 -75h500v-50h-500v50z" />
    <glyph glyph-name="quoteleft" unicode="&#x2018;" horiz-adv-x="240" 
d="M166 460h-92v87q0 28 2.5 54.5t11.5 48.5t27.5 38.5t50.5 25.5v-47q-26 -13 -35 -30t-9 -47v-24h44v-106z" />
    <glyph glyph-name="a" unicode="a" horiz-adv-x="444" 
d="M42 374q0 91 42 133.5t138 42.5q61 0 94 -16t48.5 -40t18 -50.5t2.5 -47.5v-299q0 -17 3 -30t23 -13q8 0 12.5 1.5t7.5 3.5v-60q-5 -1 -19 -3t-30 -2q-12 0 -25 1t-23.5 7.5t-18.5 20.5t-9 40h-2q-20 -36 -55.5 -56.5t-73.5 -20.5q-75 0 -110.5 42t-35.5 114
q0 57 24.5 94.5t76.5 53.5l113 34q23 7 35.5 14.5t18 16.5t6.5 21t1 29q0 38 -22 58.5t-64 20.5q-35 0 -53.5 -13.5t-27 -31.5t-10 -35.5t-1.5 -24.5v-5h-84zM301 292q-12 -12 -30.5 -20.5t-38.5 -15t-40 -12.5t-34 -15q-20 -13 -30.5 -31.5t-10.5 -53.5q0 -41 16.5 -66.5
t59.5 -25.5q21 0 40.5 8t34.5 22t24 32.5t9 39.5v138z" />
    <glyph glyph-name="b" unicode="b" horiz-adv-x="463" 
d="M134 268q0 -41 4 -79t16 -67t33 -46.5t55 -17.5q29 0 48 15.5t30 43.5t15.5 66.5t4.5 84.5q0 48 -4.5 87t-15.5 66t-30 42t-48 15q-34 0 -55 -18t-33 -48t-16 -67.5t-4 -76.5zM55 714h84v-239h2q14 35 48.5 55t75.5 20q54 0 86.5 -28.5t49.5 -70.5t22 -91.5t5 -91.5
q0 -57 -10 -108t-31 -89.5t-54.5 -61.5t-79.5 -23q-22 0 -41 7t-34.5 18t-26 25.5t-14.5 29.5h-2v-66h-80v714z" />
    <glyph glyph-name="c" unicode="c" horiz-adv-x="426" 
d="M310 373q0 19 -4.5 39t-14 36t-26 26t-40.5 10q-20 0 -38.5 -7t-33.5 -30.5t-24 -67.5t-9 -117q0 -26 1.5 -62t11.5 -69t30.5 -56t58.5 -23q27 0 44 13t27 32.5t13.5 43t3.5 45.5h84q0 -32 -8.5 -67t-29 -64.5t-54.5 -49t-84 -19.5q-99 0 -142.5 68t-43.5 207
q0 50 6.5 101.5t27 93t58 68t99.5 26.5q55 0 88.5 -19t52 -46.5t24.5 -58t6 -53.5h-84z" />
    <glyph glyph-name="d" unicode="d" horiz-adv-x="463" 
d="M123 268q0 -48 4.5 -87t15.5 -66t30 -42t48 -15q35 0 56 15.5t32.5 43.5t15.5 66.5t4 84.5q0 39 -4 76.5t-16 67.5t-33 48t-55 18q-29 0 -48 -15t-30 -42t-15.5 -66t-4.5 -87zM408 0h-80v66h-2q-4 -15 -14.5 -29.5t-26 -25.5t-34.5 -18t-41 -7q-48 0 -81 20.5t-54 57.5
t-30.5 89t-9.5 115q0 42 5 91.5t22.5 91.5t51 70.5t90.5 28.5q36 0 70 -20t48 -55h2v239h84v-714z" />
    <glyph glyph-name="e" unicode="e" horiz-adv-x="444" 
d="M319 324v29q0 22 -4 45.5t-14.5 42.5t-28.5 31t-46 12q-33 0 -52.5 -17.5t-29.5 -40.5t-13 -46.5t-3 -35.5v-20h191zM125 258q0 -31 1.5 -67t11.5 -67t30.5 -51.5t59.5 -20.5q30 0 48 13.5t27.5 33t12.5 41t3 36.5h84q0 -21 -7.5 -53.5t-27.5 -63t-55 -52t-90 -21.5
q-99 0 -142.5 68t-43.5 207q0 50 6.5 101.5t27 93t58 68t99.5 26.5q61 0 97 -24t54 -61.5t23 -83.5t5 -89v-34h-282z" />
    <glyph glyph-name="f" unicode="f" horiz-adv-x="259" 
d="M80 470h-78v66h78v63q0 61 27.5 92t88.5 31h61v-72h-39q-27 0 -40.5 -11.5t-13.5 -39.5v-63h92v-66h-92v-470h-84v470z" />
    <glyph glyph-name="g" unicode="g" horiz-adv-x="463" 
d="M221 478q-29 0 -48 -15t-30 -42t-15.5 -66t-4.5 -87q0 -33 3.5 -67.5t13.5 -63t29 -47t51 -18.5q34 0 55.5 15t33.5 41.5t16 62.5t4 77q0 39 -4 76.5t-16 67.5t-33 48t-55 18zM408 34q0 -60 -13.5 -101.5t-37.5 -67.5t-57.5 -37.5t-73.5 -11.5q-12 0 -39.5 2t-56 14.5
t-52 40t-28.5 77.5h84q3 -37 28 -52.5t58 -15.5q40 0 61.5 13.5t31 32.5t10.5 39.5t1 34.5v70h-2q-14 -34 -47.5 -53t-73.5 -19q-39 0 -66.5 15t-46 39t-29 53.5t-16 59.5t-7 56.5t-1.5 44.5q0 54 8 105t28.5 90.5t54 63t84.5 23.5q44 0 76 -25t40 -57h2v68h80v-502z" />
    <glyph glyph-name="h" unicode="h" horiz-adv-x="463" 
d="M55 714h84v-239h2q8 16 22.5 30t32 24t37 15.5t37.5 5.5q52 0 80 -17.5t41 -43.5t15 -55.5t2 -53.5v-380h-84v370q0 15 -1.5 34t-9.5 35.5t-24 27.5t-44 11q-17 0 -35.5 -6t-34.5 -19t-26 -33.5t-10 -49.5v-370h-84v714z" />
    <glyph glyph-name="i" unicode="i" 
d="M60 536h84v-536h-84v536zM60 714h84v-96h-84v96z" />
    <glyph glyph-name="j" unicode="j" 
d="M144 -52q0 -66 -29.5 -99t-98.5 -33q-10 0 -19.5 1t-19.5 2v72q8 -1 15.5 -2t15.5 -1q19 0 30 7t15.5 19t5.5 28.5t1 35.5v558h84v-588zM144 618h-84v96h84v-96z" />
    <glyph glyph-name="k" unicode="k" horiz-adv-x="444" 
d="M455 0h-98l-149 265l-69 -84v-181h-84v714h84v-425h2l188 247h98l-163 -202z" />
    <glyph glyph-name="l" unicode="l" 
d="M60 714h84v-714h-84v714z" />
    <glyph glyph-name="m" unicode="m" horiz-adv-x="722" 
d="M63 536h80v-63h2q17 37 54 57t76 20q47 0 75 -19.5t41 -65.5q18 35 51.5 60t75.5 25q53 0 81.5 -17.5t42 -43.5t15.5 -55.5t2 -53.5v-380h-84v370q0 15 -1.5 34t-8.5 35.5t-21.5 27.5t-40.5 11q-15 0 -32.5 -5t-32.5 -17.5t-25 -33.5t-10 -52v-370h-84v370q0 15 -1.5 34
t-8.5 35.5t-21.5 27.5t-40.5 11q-15 0 -32.5 -5t-32.5 -17.5t-25 -33.5t-10 -52v-370h-84v536z" />
    <glyph glyph-name="n" unicode="n" horiz-adv-x="463" 
d="M55 536h80v-63h2q17 37 54 57t76 20q53 0 81.5 -17.5t42 -43.5t15.5 -55.5t2 -53.5v-380h-84v370q0 15 -1.5 34t-9.5 35.5t-24 27.5t-44 11q-17 0 -35.5 -6t-34.5 -19t-26 -33.5t-10 -49.5v-370h-84v536z" />
    <glyph glyph-name="o" unicode="o" horiz-adv-x="444" 
d="M29 268q0 57 8.5 108t30 89.5t59 61.5t95.5 23t95.5 -23t59 -61.5t30 -89.5t8.5 -108t-8.5 -108t-30.5 -89.5t-59 -61.5t-95 -23t-95.5 23t-59 61.5t-30 89.5t-8.5 108zM220 52q33 0 54 17.5t33 47t16 68.5t4 83q0 43 -4 82.5t-15.5 69t-32.5 47t-55 17.5
q-32 0 -52 -17.5t-31.5 -47t-15.5 -69t-4 -82.5q0 -44 4 -83t15 -68.5t31.5 -47t52.5 -17.5z" />
    <glyph glyph-name="p" unicode="p" horiz-adv-x="463" 
d="M134 268q0 -39 4 -76.5t16 -67.5t33 -48t55 -18q58 0 78 58t20 162q0 44 -4.5 81t-15.5 63.5t-30 41t-48 14.5q-35 0 -56 -15.5t-32.5 -43.5t-15.5 -66.5t-4 -84.5zM55 536h80v-66h2q4 15 14.5 29.5t26 25.5t34.5 18t41 7q48 0 81 -20t54 -56t30.5 -86t9.5 -110
q0 -46 -8 -97t-27.5 -94.5t-53.5 -72t-86 -28.5q-36 0 -67 20t-45 55h-2v-237h-84v712z" />
    <glyph glyph-name="q" unicode="q" horiz-adv-x="463" 
d="M329 268q0 46 -4 84.5t-15.5 66.5t-32.5 43.5t-56 15.5q-29 0 -48 -14.5t-30 -41t-15.5 -63.5t-4.5 -81q0 -52 4.5 -92.5t15.5 -69t30 -43.5t48 -15q34 0 55 18t33 48t16 67.5t4 76.5zM324 61h-2q-14 -35 -45 -55t-67 -20q-52 0 -86 25t-53.5 66t-27.5 93.5t-8 107.5
q0 60 9.5 110t30.5 86t54 56t81 20q22 0 41 -7t34.5 -18t26 -25.5t14.5 -29.5h2v66h80v-712h-84v237z" />
    <glyph glyph-name="r" unicode="r" horiz-adv-x="296" 
d="M55 536h84v-80h2q9 19 20 36t24.5 30t31 20.5t40.5 7.5q25 0 37 -6v-82q-6 1 -15.5 2.5t-29.5 1.5q-16 0 -35 -7.5t-35.5 -23t-28 -39.5t-11.5 -57v-339h-84v536z" />
    <glyph glyph-name="s" unicode="s" horiz-adv-x="407" 
d="M285 379q0 51 -16.5 78t-62.5 27q-10 0 -25 -2.5t-28.5 -10.5t-23.5 -24.5t-10 -44.5q0 -24 11.5 -39t30 -25t42 -17.5t48.5 -15.5q24 -8 47.5 -18t42 -26t30 -41.5t11.5 -65.5q0 -42 -13 -73.5t-36 -52.5t-55 -31.5t-69 -10.5q-68 0 -105.5 22t-55 52.5t-20.5 62.5
t-3 53h84q0 -24 4 -46.5t15 -40t30.5 -27.5t50.5 -10q10 0 25 3t29.5 13t24.5 27t10 46q0 27 -11.5 44.5t-30 29t-42 19.5t-47.5 16t-48 17.5t-42.5 25.5t-30 41.5t-11.5 67.5q0 37 13.5 65t37 46.5t54.5 27.5t66 9q58 0 91 -18t48.5 -44t19.5 -55.5t4 -53.5h-84z" />
    <glyph glyph-name="t" unicode="t" horiz-adv-x="259" 
d="M80 692h84v-156h93v-66h-93v-344q0 -32 11 -46t44 -14q14 0 22 1t15 2v-69q-8 -2 -25 -4t-43 -2q-33 0 -54 6.5t-33 20t-16.5 33.5t-4.5 46v370h-78v66h78v156z" />
    <glyph glyph-name="u" unicode="u" horiz-adv-x="463" 
d="M408 0h-80v63h-2q-17 -37 -54 -57t-76 -20q-53 0 -81.5 17.5t-42 43.5t-15.5 55.5t-2 53.5v380h84v-370q0 -15 1.5 -34t9.5 -35.5t23.5 -27.5t44.5 -11q17 0 35.5 6t34.5 19t26 33.5t10 49.5v370h84v-536z" />
    <glyph glyph-name="v" unicode="v" horiz-adv-x="406" 
d="M10 536h92l100 -430h2l100 430h92l-145 -536h-96z" />
    <glyph glyph-name="w" unicode="w" horiz-adv-x="648" 
d="M10 536h88l86 -438h2l91 438h99l89 -438h2l83 438h88l-127 -536h-92l-94 438h-2l-90 -438h-98z" />
    <glyph glyph-name="x" unicode="x" horiz-adv-x="406" 
d="M16 536h92l97 -191l98 191h92l-140 -257l145 -279h-92l-107 212l-103 -212h-92l147 279z" />
    <glyph glyph-name="y" unicode="y" horiz-adv-x="406" 
d="M10 536h92l106 -430h2l94 430h92l-155 -572q-8 -28 -17 -53t-24.5 -44.5t-39.5 -31t-62 -11.5q-25 0 -37.5 1t-23.5 2v66q18 -3 49 -3q29 0 43.5 15t22.5 37l16 47z" />
    <glyph glyph-name="z" unicode="z" horiz-adv-x="389" 
d="M39 536h323v-70l-240 -394h238v-72h-333v66l243 398h-231v72z" />
    <glyph glyph-name="braceleft" unicode="{" horiz-adv-x="259" 
d="M2 295q33 0 54.5 29t21.5 82v178q0 37 9 62t24 40t34.5 21.5t40.5 6.5h71v-66h-51q-18 0 -28.5 -7.5t-15 -19.5t-5.5 -26.5t-1 -28.5v-172q0 -36 -10.5 -60.5t-25 -39t-29.5 -21t-23 -7.5v-2q8 -1 23 -7.5t29.5 -21t25 -39t10.5 -60.5v-172q0 -14 1 -28.5t5.5 -26.5
t15 -19.5t28.5 -7.5h51v-66h-71q-21 0 -40.5 6.5t-34.5 21.5t-24 40t-9 62v178q0 53 -21.5 82t-54.5 29v60z" />
    <glyph glyph-name="bar" unicode="|" horiz-adv-x="222" 
d="M78 728h66v-742h-66v742z" />
    <glyph glyph-name="braceright" unicode="}" horiz-adv-x="259" 
d="M257 235q-33 0 -54.5 -29t-21.5 -82v-178q0 -37 -9 -62t-24 -40t-34.5 -21.5t-40.5 -6.5h-71v66h51q18 0 28.5 7.5t15 19.5t5.5 26.5t1 28.5v172q0 36 10.5 60.5t25 39t29.5 21t23 7.5v2q-8 1 -23 7.5t-29.5 21t-25 39t-10.5 60.5v172q0 14 -1 28.5t-5.5 26.5t-15 19.5
t-28.5 7.5h-51v66h71q21 0 40.5 -6.5t34.5 -21.5t24 -40t9 -62v-178q0 -53 21.5 -82t54.5 -29v-60z" />
    <glyph glyph-name="asciitilde" unicode="~" horiz-adv-x="600" 
d="M56 231q11 16 24.5 32.5t30 30t37 22t44.5 8.5q13 0 24.5 -0.5t23 -3.5t25 -9t31.5 -16q25 -14 52 -30.5t55 -16.5q17 0 32 7.5t28 19t22.5 24t16.5 22.5l42 -45q-11 -16 -24.5 -33t-30 -30.5t-37 -22t-44.5 -8.5q-14 0 -25 0.5t-22.5 3.5t-25 9t-31.5 16
q-25 14 -52 30.5t-55 16.5q-17 0 -32 -7.5t-28 -19t-22.5 -24t-16.5 -22.5z" />
    <glyph glyph-name="exclamdown" unicode="&#xa1;" horiz-adv-x="258" 
d="M175 -176h-92l16 528h60zM175 442h-92v96h92v-96z" />
    <glyph glyph-name="cent" unicode="&#xa2;" horiz-adv-x="480" 
d="M227 484q-16 -4 -30.5 -15.5t-25.5 -37t-17.5 -66.5t-6.5 -103q0 -26 1.5 -59t9 -64.5t23.5 -55.5t46 -31v432zM227 -14q-89 5 -128.5 73t-39.5 202q0 48 6 97t24 90t51 69t87 33v70h42v-70q48 -3 78 -22.5t46.5 -46t22 -56t5.5 -52.5h-84q0 18 -3.5 36.5t-11.5 34
t-21 26.5t-32 14v-432q21 5 34 18.5t20.5 32.5t10.5 40.5t3 42.5h84q0 -31 -7.5 -64.5t-25.5 -62t-47 -49t-72 -24.5v-85h-42v85z" />
    <glyph glyph-name="sterling" unicode="&#xa3;" horiz-adv-x="480" 
d="M363 505q0 28 -6 52.5t-19.5 43.5t-35 30t-53.5 11t-54 -10t-35 -25.5t-18.5 -34t-5.5 -35.5q0 -33 18 -75t38 -80h164v-60h-142q8 -15 12.5 -32.5t4.5 -35.5q0 -30 -11.5 -55.5t-29.5 -48.5t-41 -43.5t-45 -39.5l2 -2q20 10 42 19t43 9q20 0 33.5 -4.5t27.5 -9.5
q14 -6 29 -10.5t36 -4.5q12 0 22.5 1.5t22.5 6t26.5 12t35.5 19.5l37 -67q-31 -22 -65.5 -36t-72.5 -14q-25 0 -46.5 6.5t-42 14t-40 14t-41.5 6.5q-25 0 -49 -11l-47 -22l-38 65q22 18 44 37.5t40 42t29 48.5t11 58q0 21 -5 41t-16 36h-95v60h70l-16 31q-14 28 -23.5 57
t-9.5 58q0 43 15.5 76.5t43 56.5t64 35t78.5 12q44 0 80.5 -12t62.5 -37t40.5 -63.5t14.5 -90.5h-84z" />
    <glyph glyph-name="fraction" unicode="&#x2044;" horiz-adv-x="167" 
d="M271 725h60l-435 -756h-60z" />
    <glyph glyph-name="fraction" unicode="&#x2215;" horiz-adv-x="167" 
d="M271 725h60l-435 -756h-60z" />
    <glyph glyph-name="yen" unicode="&#xa5;" horiz-adv-x="480" 
d="M200 153h-147v60h147v60l-10 22h-137v60h110l-154 339h97l136 -324l141 324h88l-150 -339h110v-60h-137l-10 -22v-60h147v-60h-147v-153h-84v153z" />
    <glyph glyph-name="florin" unicode="&#x192;" horiz-adv-x="480" 
d="M-3 -106q6 -2 19.5 -3t29.5 -1q17 0 29.5 4t22 14.5t16 28t11.5 43.5l79 400h-104l11 60h104l33 156q14 67 56.5 92.5t109.5 25.5q15 0 26.5 -1t21.5 -3l-14 -66q-5 2 -14.5 3t-20.5 1q-28 0 -44.5 -8.5t-26.5 -25t-16 -41t-12 -55.5l-15 -78h109l-11 -60h-109l-80 -411
q-14 -72 -53.5 -108.5t-114.5 -36.5q-15 0 -29 1t-28 3z" />
    <glyph glyph-name="section" unicode="&#xa7;" horiz-adv-x="482" 
d="M325 578q0 41 -26 62.5t-62 21.5q-22 0 -38 -7t-26.5 -18t-15.5 -24.5t-5 -25.5q0 -17 7 -30.5t18.5 -24.5t25.5 -21t29 -19l100 -60q24 -15 46 -30.5t38.5 -34.5t26 -42t9.5 -53q0 -49 -26.5 -85.5t-62.5 -61.5q31 -20 44.5 -54t13.5 -70q0 -38 -14.5 -67t-38.5 -48.5
t-55.5 -29.5t-65.5 -10q-56 0 -91.5 18t-56 44t-28 56.5t-7.5 55.5h84q0 -46 24 -77t75 -31q27 0 44 9.5t26.5 23t12.5 28t3 24.5q0 36 -26 61.5t-57 45.5l-113 70q-21 13 -40 28.5t-34 33.5t-24 39t-9 45q0 27 7.5 47.5t20.5 37t31 30t39 27.5q-29 19 -46.5 52t-17.5 68
q0 36 15 63.5t39 46t55 27.5t64 9q61 0 95.5 -18t52 -42t22 -49.5t6.5 -40.5h-88zM250 203l60 -41q7 4 17 12t19 19.5t15.5 27.5t6.5 36q0 34 -23.5 59t-53.5 43l-110 68q-10 -8 -22 -17t-22 -20.5t-16.5 -26t-6.5 -32.5q0 -29 22 -49.5t48 -36.5z" />
    <glyph glyph-name="currency" unicode="&#xa4;" horiz-adv-x="480" 
d="M92 347q0 -33 11.5 -61t31.5 -48.5t47 -32.5t58 -12t58 12t47 32.5t31.5 48.5t11.5 61t-11.5 61t-31.5 48.5t-47 32.5t-58 12t-58 -12t-47 -32.5t-31.5 -48.5t-11.5 -61zM65 214q-21 28 -33 61.5t-12 71.5t12 71t33 61l-47 47l43 43l47 -47q57 45 132 45q38 0 71.5 -12
t60.5 -33l47 47l43 -43l-47 -47q45 -57 45 -132q0 -38 -12 -71.5t-34 -60.5l48 -48l-42 -42l-48 48q-27 -22 -60.5 -34t-71.5 -12t-71.5 12t-61.5 33l-47 -47l-42 42z" />
    <glyph glyph-name="quotesingle" unicode="'" horiz-adv-x="240" 
d="M87 714h66v-254h-66v254z" />
    <glyph glyph-name="quotedblleft" unicode="&#x201c;" horiz-adv-x="407" 
d="M328 460h-92v87q0 28 2.5 54.5t11.5 48.5t27.5 38.5t50.5 25.5v-47q-26 -13 -35 -30t-9 -47v-24h44v-106zM171 460h-92v87q0 28 2.5 54.5t11.5 48.5t27.5 38.5t50.5 25.5v-47q-26 -13 -35 -30t-9 -47v-24h44v-106z" />
    <glyph glyph-name="guillemotleft" unicode="&#xab;" horiz-adv-x="389" 
d="M198 323l142 143v-88l-94 -94l94 -94v-88l-142 143v78zM49 323l142 143v-88l-94 -94l94 -94v-88l-142 143v78z" />
    <glyph glyph-name="guilsinglleft" unicode="&#x2039;" horiz-adv-x="240" 
d="M49 323l142 143v-88l-94 -94l94 -94v-88l-142 143v78z" />
    <glyph glyph-name="guilsinglright" unicode="&#x203a;" horiz-adv-x="240" 
d="M191 245l-142 -143v88l94 94l-94 94v88l142 -143v-78z" />
    <glyph glyph-name="fi" unicode="&#xfb01;" horiz-adv-x="463" 
d="M80 470h-78v66h78v63q0 61 27.5 92t88.5 31h61v-72h-39q-27 0 -40.5 -11.5t-13.5 -39.5v-63h92v-66h-92v-470h-84v470zM319 536h84v-536h-84v536zM319 714h84v-96h-84v96z" />
    <glyph glyph-name="fl" unicode="&#xfb02;" horiz-adv-x="463" 
d="M80 470h-78v66h78v63q0 61 27.5 92t88.5 31h61v-72h-39q-27 0 -40.5 -11.5t-13.5 -39.5v-63h92v-66h-92v-470h-84v470zM319 714h84v-714h-84v714z" />
    <glyph glyph-name="endash" unicode="&#x2013;" horiz-adv-x="500" 
d="M0 320h500v-72h-500v72z" />
    <glyph glyph-name="dagger" unicode="&#x2020;" horiz-adv-x="482" 
d="M199 714h84v-206h172v-72h-172v-576h-84v576h-172v72h172v206z" />
    <glyph glyph-name="daggerdbl" unicode="&#x2021;" horiz-adv-x="482" 
d="M199 714h84v-193h172v-72h-172v-317h172v-72h-172v-200h-84v200h-172v72h172v317h-172v72h172v193z" />
    <glyph glyph-name="periodcentered" unicode="&#xb7;" horiz-adv-x="240" 
d="M64 327q0 23 16.5 39.5t39.5 16.5t39.5 -16.5t16.5 -39.5t-16.5 -39.5t-39.5 -16.5t-39.5 16.5t-16.5 39.5z" />
    <glyph glyph-name="periodcentered" unicode="&#x2219;" horiz-adv-x="240" 
d="M64 327q0 23 16.5 39.5t39.5 16.5t39.5 -16.5t16.5 -39.5t-16.5 -39.5t-39.5 -16.5t-39.5 16.5t-16.5 39.5z" />
    <glyph glyph-name="paragraph" unicode="&#xb6;" horiz-adv-x="556" 
d="M411 660h-100v-800h-66v462q-46 0 -84.5 14.5t-66 39.5t-43 59t-15.5 73q0 49 17 87t48.5 64.5t74.5 40.5t96 14h205v-854h-66v800z" />
    <glyph glyph-name="bullet" unicode="&#x2022;" horiz-adv-x="500" 
d="M72 357q0 37 14 69.5t38 56.5t56.5 38t69.5 14t69.5 -14t56.5 -38t38 -56.5t14 -69.5t-14 -69.5t-38 -56.5t-56.5 -38t-69.5 -14t-69.5 14t-56.5 38t-38 56.5t-14 69.5z" />
    <glyph glyph-name="quotesinglbase" unicode="&#x201a;" horiz-adv-x="240" 
d="M74 106h92v-87q0 -29 -2.5 -55t-11.5 -48t-27.5 -38.5t-50.5 -25.5v47q26 13 35 30t9 47v24h-44v106z" />
    <glyph glyph-name="quotedblbase" unicode="&#x201e;" horiz-adv-x="407" 
d="M328 19q0 -29 -2.5 -55t-11.5 -48t-27.5 -38.5t-50.5 -25.5v47q26 13 35 30t9 47v24h-44v106h92v-87zM171 19q0 -29 -2.5 -55t-11.5 -48t-27.5 -38.5t-50.5 -25.5v47q26 13 35 30t9 47v24h-44v106h92v-87z" />
    <glyph glyph-name="quotedblright" unicode="&#x201d;" horiz-adv-x="407" 
d="M328 627q0 -29 -2.5 -55t-11.5 -48t-27.5 -38.5t-50.5 -25.5v47q26 13 35 30t9 47v24h-44v106h92v-87zM171 627q0 -29 -2.5 -55t-11.5 -48t-27.5 -38.5t-50.5 -25.5v47q26 13 35 30t9 47v24h-44v106h92v-87z" />
    <glyph glyph-name="guillemotright" unicode="&#xbb;" horiz-adv-x="389" 
d="M340 245l-142 -143v88l94 94l-94 94v88l142 -143v-78zM191 245l-142 -143v88l94 94l-94 94v88l142 -143v-78z" />
    <glyph glyph-name="ellipsis" unicode="&#x2026;" horiz-adv-x="1000" 
d="M121 106h92v-106h-92v106zM454 106h92v-106h-92v106zM787 106h92v-106h-92v106z" />
    <glyph glyph-name="perthousand" unicode="&#x2030;" horiz-adv-x="1037" 
d="M860 40q21 0 33 10t17.5 28t7 43.5t1.5 56.5t-1.5 56.5t-7 43.5t-17.5 28t-33 10t-33 -10t-17.5 -28t-7 -43.5t-1.5 -56.5t1.5 -56.5t7 -43.5t17.5 -28t33 -10zM479 708h70l-310 -722h-70zM177 378q21 0 33 10t17.5 28t7 43.5t1.5 56.5t-1.5 56.5t-7 43.5t-17.5 28
t-33 10t-33 -10t-17.5 -28t-7 -43.5t-1.5 -56.5t1.5 -56.5t7 -43.5t17.5 -28t33 -10zM860 -14q-45 0 -71 16t-39.5 42.5t-17 61t-3.5 72.5q0 37 3.5 72t17 61.5t39.5 42.5t71 16t71 -16t39.5 -42.5t17 -61.5t3.5 -72q0 -38 -3.5 -72.5t-17 -61t-39.5 -42.5t-71 -16zM177 324
q-45 0 -71 16t-39.5 42.5t-17 61t-3.5 72.5q0 37 3.5 72t17 61.5t39.5 42.5t71 16t71 -16t39.5 -42.5t17 -61.5t3.5 -72q0 -38 -3.5 -72.5t-17 -61t-39.5 -42.5t-71 -16zM551 40q21 0 33 10t17.5 28t7 43.5t1.5 56.5t-1.5 56.5t-7 43.5t-17.5 28t-33 10t-33 -10t-17.5 -28
t-7 -43.5t-1.5 -56.5t1.5 -56.5t7 -43.5t17.5 -28t33 -10zM551 -14q-45 0 -71 16t-39.5 42.5t-17 61t-3.5 72.5q0 37 3.5 72t17 61.5t39.5 42.5t71 16t71 -16t39.5 -42.5t17 -61.5t3.5 -72q0 -38 -3.5 -72.5t-17 -61t-39.5 -42.5t-71 -16z" />
    <glyph glyph-name="questiondown" unicode="&#xbf;" horiz-adv-x="444" 
d="M409 34q0 -44 -11 -83.5t-33.5 -69.5t-58 -47.5t-83.5 -17.5q-45 0 -80 14.5t-59 39.5t-36.5 59.5t-12.5 74.5q0 38 13 75t37 66q4 4 15.5 17t24 27.5t24 27t14.5 16.5q19 24 25.5 50.5t6.5 49.5v19h78q0 -30 -2.5 -63t-16.5 -60q-9 -16 -22.5 -34t-28 -35t-28 -32.5
t-22.5 -26.5q-17 -23 -23.5 -45.5t-6.5 -56.5q0 -22 6 -42t18 -35.5t30.5 -24.5t42.5 -9q36 0 57 16t31.5 38.5t13.5 48t3 43.5h84zM279 442h-92v96h92v-96z" />
    <glyph glyph-name="grave" unicode="`" 
d="M82 752l70 -142h-60l-108 142h98z" />
    <glyph glyph-name="acute" unicode="&#xb4;" 
d="M122 752h98l-108 -142h-60z" />
    <glyph glyph-name="circumflex" unicode="&#x2c6;" 
d="M64 752h77l100 -142h-78l-61 88l-61 -88h-78z" />
    <glyph glyph-name="tilde" unicode="&#x2dc;" 
d="M249 740q0 -19 -5.5 -38.5t-16 -35.5t-27 -26.5t-37.5 -10.5q-16 0 -33 6t-32.5 13t-28.5 13t-21 6q-10 0 -17 -4.5t-11.5 -11.5t-7 -14.5t-3.5 -14.5h-54q0 22 7 42t19.5 35.5t29.5 24.5t37 9q14 0 29.5 -5.5t30.5 -13.5q15 -7 28.5 -13t23.5 -6q19 0 25.5 15.5
t9.5 29.5h54z" />
    <glyph glyph-name="macron" unicode="&#xaf;" 
d="M-30 709h264v-54h-264v54z" />
    <glyph glyph-name="macron" unicode="&#x2c9;" 
d="M-30 709h264v-54h-264v54z" />
    <glyph glyph-name="breve" unicode="&#x2d8;" 
d="M25 745q0 -14 7 -26t18 -21t24.5 -14.5t27.5 -5.5q13 0 27 5.5t25 14.5t18 21t7 26h48q0 -15 -5.5 -37t-19.5 -42t-38 -34t-62 -14t-62 14t-38 34t-19.5 42t-5.5 37h48z" />
    <glyph glyph-name="dotaccent" unicode="&#x2d9;" 
d="M63 735h78v-101h-78v101z" />
    <glyph glyph-name="dieresis" unicode="&#xa8;" 
d="M-18 735h78v-101h-78v101zM144 735h78v-101h-78v101z" />
    <glyph glyph-name="ring" unicode="&#x2da;" 
d="M3 690q0 42 28.5 70.5t70.5 28.5t70.5 -28.5t28.5 -70.5t-28.5 -70.5t-70.5 -28.5t-70.5 28.5t-28.5 70.5zM45 690q0 -23 17 -40t40 -17t40 17t17 40t-17 40t-40 17t-40 -17t-17 -40z" />
    <glyph glyph-name="cedilla" unicode="&#xb8;" 
d="M14 -158q1 0 9 -2l18 -4.5t20.5 -4t16.5 -1.5q31 0 43 12t12 29t-14.5 27t-32.5 10q-16 0 -25.5 -2.5t-12.5 -4.5l-15 18l59 87h42l-41 -60l2 -2q5 2 15 4t15 2q13 0 27 -4t26 -13t19.5 -23.5t7.5 -35.5q0 -19 -9 -35t-23.5 -27t-34 -17.5t-40.5 -6.5q-28 0 -55 5t-44 15
z" />
    <glyph glyph-name="hungarumlaut" unicode="&#x2dd;" 
d="M20 752h98l-108 -142h-60zM184 752h98l-108 -142h-60z" />
    <glyph glyph-name="ogonek" unicode="&#x2db;" 
d="M180 6q-33 -24 -53 -42.5t-31.5 -33.5t-15.5 -28t-4 -26q0 -21 10 -33.5t30 -12.5t34.5 6.5t31.5 14.5l18 -35q-21 -17 -50.5 -22.5t-51.5 -5.5q-49 0 -71.5 21t-22.5 57q0 82 123 140h53z" />
    <glyph glyph-name="caron" unicode="&#x2c7;" 
d="M140 610h-77l-100 142h78l61 -88l61 88h78z" />
    <glyph glyph-name="emdash" unicode="&#x2014;" horiz-adv-x="1000" 
d="M0 320h1000v-72h-1000v72z" />
    <glyph glyph-name="AE" unicode="&#xc6;" horiz-adv-x="722" 
d="M182 268h150v374h-10zM268 714h418v-78h-266v-224h250v-78h-250v-256h278v-78h-366v196h-175l-73 -196h-92z" />
    <glyph glyph-name="ordfeminine" unicode="&#xaa;" horiz-adv-x="289" 
d="M251 436q0 -10 2 -18.5t15 -8.5q5 0 8 1t5 2v-42q-3 -1 -13 -2t-25 -1q-20 0 -34.5 10t-15.5 36h-2q-12 -22 -35.5 -34t-52.5 -12q-47 0 -71 26t-24 67q0 36 17 58.5t55 33.5l73 20q28 8 33 18t5 27q0 23 -14 33t-40 10q-22 0 -34 -7.5t-17.5 -17.5t-6.5 -19.5t-1 -13.5
v-4h-60q0 59 28.5 84.5t98.5 25.5q40 0 61.5 -10t31.5 -25t11.5 -31.5t1.5 -29.5v-176zM191 547q-8 -8 -20 -12.5t-25.5 -8t-26 -7.5t-21.5 -10q-11 -8 -17.5 -16.5t-6.5 -28.5t10 -34.5t36 -14.5q13 0 26 5t23 12.5t16 17.5t6 20v77z" />
    <glyph glyph-name="Lslash" unicode="&#x141;" horiz-adv-x="444" 
d="M-8 269l66 47v398h88v-335l194 139v-72l-194 -139v-229h290v-78h-378v244l-66 -47v72z" />
    <glyph glyph-name="Oslash" unicode="&#xd8;" horiz-adv-x="556" 
d="M358 626q-30 30 -80 30q-46 0 -73 -23.5t-41.5 -64t-19 -95t-4.5 -116.5q0 -60 4 -111.5t17 -92.5zM199 88q30 -30 79 -30q46 0 73 23.5t41.5 64t19 95t4.5 116.5q0 60 -4 112.5t-17 92.5zM121 56q-23 27 -37 61.5t-22 73.5t-11 81.5t-3 84.5q0 67 8 133.5t33 119.5
t70 85.5t119 32.5q35 0 62 -7t49 -21l24 59l54 -22l-32 -77q22 -27 36.5 -61.5t22.5 -74t11 -82t3 -85.5q0 -68 -8 -134t-33 -119t-70 -85.5t-119 -32.5q-65 0 -110 28l-26 -62l-54 24z" />
    <glyph glyph-name="OE" unicode="&#x152;" horiz-adv-x="796" 
d="M500 78h272v-78h-358v63h-2q-14 -36 -51.5 -56.5t-82.5 -20.5q-74 0 -119 31t-70 82.5t-33 118.5t-8 139q0 67 8 133.5t33 119.5t70 85.5t119 32.5q19 0 40 -4.5t39.5 -13t34 -21.5t24.5 -30h2v55h342v-78h-260v-224h244v-78h-244v-256zM412 463q0 38 -2.5 73t-15.5 61.5
t-40 42.5t-76 16q-47 0 -75 -23.5t-43 -64t-19.5 -95t-4.5 -116.5t4.5 -116.5t19.5 -95t43 -64t75 -23.5q43 0 69 14t40.5 38t19.5 55.5t5 66.5v231z" />
    <glyph glyph-name="ordmasculine" unicode="&#xba;" horiz-adv-x="289" 
d="M143 708q39 0 64.5 -14t40 -37.5t20 -54t5.5 -63.5q0 -34 -5.5 -65t-20.5 -55t-40 -38t-64 -14q-38 0 -63 14t-39 38t-19.5 55t-5.5 65q0 33 5.5 63.5t19.5 54t39 37.5t63 14zM143 415q19 0 31.5 11t20 28.5t10 39.5t2.5 45q0 22 -2.5 43.5t-9.5 38.5t-19.5 28t-32.5 11
q-18 0 -30 -11t-19 -28t-9.5 -38.5t-2.5 -43.5q0 -23 2.5 -45t9 -39.5t18.5 -28.5t31 -11z" />
    <glyph glyph-name="ae" unicode="&#xe6;" horiz-adv-x="667" 
d="M553 324v29q0 22 -4 45.5t-14 42.5t-27.5 31t-43.5 12q-31 0 -49.5 -17.5t-28 -40.5t-12.5 -46.5t-3 -35.5v-20h182zM637 176q0 -21 -7.5 -53.5t-26.5 -63t-51.5 -52t-83.5 -21.5q-42 0 -69.5 12.5t-43.5 29t-23 32.5t-8 24h-2q-20 -43 -54.5 -70.5t-94.5 -27.5
q-67 0 -107 42t-40 114q0 57 26.5 95t75.5 53l125 38q24 8 30.5 25.5t6.5 51.5q0 38 -19 58.5t-61 20.5q-32 0 -49.5 -13.5t-25.5 -31.5t-9.5 -35.5t-1.5 -24.5v-5h-84q0 92 42.5 134t133.5 42q53 0 86 -20t42 -54h2q7 17 20 30.5t30.5 23.5t37 15t38.5 5q58 0 91.5 -24
t50.5 -61.5t22 -83.5t5 -89v-34h-273q0 -31 1.5 -67t10.5 -67t28 -51.5t54 -20.5q30 0 48 13.5t27.5 33t12.5 41t3 36.5h84zM290 268v11h-2q-3 -5 -21 -12.5t-39.5 -14.5t-42 -13t-27.5 -9q-21 -8 -32.5 -27.5t-11.5 -57.5q0 -37 17.5 -65t57.5 -28q36 0 56.5 15.5t30 36
t12 40.5t2.5 30v94z" />
    <glyph glyph-name="dotlessi" unicode="&#x131;" 
d="M60 536h84v-536h-84v536z" />
    <glyph glyph-name="lslash" unicode="&#x142;" 
d="M60 276l-60 -64v78l60 64v360h84v-271l60 63v-78l-60 -63v-365h-84v276z" />
    <glyph glyph-name="oslash" unicode="&#xf8;" horiz-adv-x="444" 
d="M167 71q21 -19 53 -19q33 0 54 17.5t33 47t16 68.5t4 83q0 38 -3.5 74t-13.5 65zM277 463q-24 21 -57 21q-32 0 -52 -17.5t-31.5 -47t-15.5 -69t-4 -82.5q0 -39 3.5 -75.5t13.5 -66.5zM96 36q-38 38 -52.5 97.5t-14.5 134.5q0 57 8.5 108t30 89.5t59 61.5t95.5 23
q49 0 84 -18l26 61l48 -21l-30 -71q38 -42 51.5 -101t13.5 -132q0 -57 -8.5 -108t-30.5 -89.5t-59 -61.5t-95 -23q-50 0 -84 18l-27 -63l-47 19z" />
    <glyph glyph-name="oe" unicode="&#x153;" horiz-adv-x="722" 
d="M683 258h-273q0 -31 1.5 -67t10.5 -67t28 -51.5t54 -20.5q30 0 48 13.5t27.5 33t12.5 41t3 36.5h84q0 -21 -7.5 -53.5t-26.5 -63t-51.5 -52t-83.5 -21.5q-42 0 -69.5 13t-43 29.5t-22 31.5t-7.5 18q-19 -43 -56 -67.5t-85 -24.5q-56 0 -92.5 23.5t-57.5 63t-29.5 90.5
t-8.5 105t8.5 105t29.5 90.5t57.5 63t92.5 23.5t89 -22t58 -69q19 42 57 66.5t83 24.5q58 0 91.5 -24t50.5 -61.5t22 -83.5t5 -89v-34zM332 268q0 41 -4 80t-15.5 69t-32 48.5t-53.5 18.5q-31 0 -50.5 -18.5t-30.5 -48.5t-15 -69t-4 -80t4 -80t15 -69t30.5 -48.5t50.5 -18.5
q33 0 53.5 18.5t32 48.5t15.5 69t4 80zM413 324h182v29q0 22 -4 45.5t-14 42.5t-27.5 31t-43.5 12q-31 0 -49.5 -17.5t-28 -40.5t-12.5 -46.5t-3 -35.5v-20z" />
    <glyph glyph-name="germandbls" unicode="&#xdf;" horiz-adv-x="463" 
d="M48 511q0 46 8 85t28 67t54 43.5t87 15.5q36 0 67 -9.5t54.5 -29.5t37 -51t13.5 -73q0 -24 -6.5 -48t-19.5 -44.5t-33 -35t-47 -19.5v-2q36 0 62.5 -15t44.5 -40.5t27 -59.5t9 -71q0 -40 -10 -80t-32 -72t-55.5 -52t-81.5 -20h-59v72h58q28 0 46 15.5t28 39t14 50t4 47.5
q0 68 -28.5 109t-78.5 41q-8 0 -20 -0.5t-20 -2.5v69h20q38 0 66 26.5t28 78.5q0 19 -4 38.5t-13.5 35.5t-26.5 26.5t-44 10.5q-33 0 -51.5 -11.5t-27.5 -30t-11.5 -42t-2.5 -47.5v-525h-84v511z" />
    <glyph glyph-name="onesuperior" unicode="&#xb9;" horiz-adv-x="312" 
d="M128 593h-96v48q21 0 41 2t36 9t25.5 20t10.5 36h49v-428h-66v313z" />
    <glyph glyph-name="logicalnot" unicode="&#xac;" horiz-adv-x="600" 
d="M487 322h-440v66h506v-282h-66v216z" />
    <glyph glyph-name="mu" unicode="&#xb5;" horiz-adv-x="463" 
d="M408 0h-80v63h-2q-17 -37 -54 -57t-76 -20q-17 0 -31.5 3t-25.5 11v-176h-84v712h84v-370q0 -15 1.5 -34t9.5 -35.5t23.5 -27.5t44.5 -11q17 0 35.5 6t34.5 19t26 33.5t10 49.5v370h84v-536z" />
    <glyph glyph-name="mu" unicode="&#x3bc;" horiz-adv-x="463" 
d="M408 0h-80v63h-2q-17 -37 -54 -57t-76 -20q-17 0 -31.5 3t-25.5 11v-176h-84v712h84v-370q0 -15 1.5 -34t9.5 -35.5t23.5 -27.5t44.5 -11q17 0 35.5 6t34.5 19t26 33.5t10 49.5v370h84v-536z" />
    <glyph glyph-name="trademark" unicode="&#x2122;" horiz-adv-x="990" 
d="M185 654h-133v60h329v-60h-130v-352h-66v352zM848 642h-2l-139 -340h-39l-139 340h-2v-340h-66v412h98l130 -316l127 316h98v-412h-66v340z" />
    <glyph glyph-name="Eth" unicode="&#xd0;" horiz-adv-x="556" 
d="M67 340h-58v66h58v308h191q83 0 132.5 -28t75.5 -76.5t34 -113.5t8 -139q0 -68 -10 -132t-37 -114t-74 -80.5t-120 -30.5h-200v340zM247 72q57 0 90.5 26.5t51 67.5t22.5 91.5t5 98.5q0 52 -4 103t-20.5 91.5t-50.5 66t-94 25.5h-92v-236h134v-66h-134v-268h92z" />
    <glyph glyph-name="onehalf" unicode="&#xbd;" horiz-adv-x="721" 
d="M508 725h60l-434 -756h-60zM30 641q21 0 41 2t36 9t25.5 20t10.5 36h49v-428h-66v313h-96v48zM420 0q0 30 8.5 55t22.5 46.5t32 39.5t37 34l37 30q29 23 45.5 45.5t16.5 57.5q0 26 -15 43t-51 17q-21 0 -33.5 -8.5t-19 -20.5t-8 -25t-1.5 -22h-72q0 29 7 54t23.5 43
t43 28.5t65.5 10.5q58 0 95.5 -28.5t37.5 -85.5q0 -25 -5.5 -44t-15.5 -35.5t-25.5 -31.5t-34.5 -30l-62 -50q-20 -16 -31 -32t-16 -31h180v-60h-261z" />
    <glyph glyph-name="plusminus" unicode="&#xb1;" horiz-adv-x="600" 
d="M47 361h220v145h66v-145h220v-66h-220v-145h-66v145h-220v66zM47 66h506v-66h-506v66z" />
    <glyph glyph-name="Thorn" unicode="&#xde;" horiz-adv-x="481" 
d="M58 714h88v-140h94q15 0 37.5 -1t47 -6.5t49 -18t44 -35.5t31.5 -58t12 -86q0 -50 -15 -88.5t-42.5 -65t-65.5 -40t-83 -13.5h-109v-162h-88v714zM146 234h105q48 0 83 34t35 105q0 59 -29 94t-95 35h-99v-268z" />
    <glyph glyph-name="onequarter" unicode="&#xbc;" horiz-adv-x="721" 
d="M566 153v185h-2l-110 -185h112zM560 428h72v-275h47v-54h-47v-99h-66v99h-166v60zM527 725h60l-434 -756h-60zM32 641q21 0 41 2t36 9t25.5 20t10.5 36h49v-428h-66v313h-96v48z" />
    <glyph glyph-name="divide" unicode="&#xf7;" horiz-adv-x="600" 
d="M47 286h506v-66h-506v66zM244 464q0 23 16.5 39.5t39.5 16.5t39.5 -16.5t16.5 -39.5t-16.5 -39.5t-39.5 -16.5t-39.5 16.5t-16.5 39.5zM244 42q0 23 16.5 39.5t39.5 16.5t39.5 -16.5t16.5 -39.5t-16.5 -39.5t-39.5 -16.5t-39.5 16.5t-16.5 39.5z" />
    <glyph glyph-name="brokenbar" unicode="&#xa6;" horiz-adv-x="222" 
d="M78 280h66v-294h-66v294zM78 728h66v-294h-66v294z" />
    <glyph glyph-name="degree" unicode="&#xb0;" horiz-adv-x="400" 
d="M51 559q0 32 11 59.5t31 47.5t47.5 31t59.5 11t59.5 -11t47.5 -31t31 -47.5t11 -59.5t-11 -59.5t-31 -47.5t-47.5 -31t-59.5 -11t-59.5 11t-47.5 31t-31 47.5t-11 59.5zM105 559q0 -20 7.5 -37t20.5 -30t30 -20.5t37 -7.5q19 0 36.5 7.5t30.5 20.5t20.5 30t7.5 37
q0 19 -7.5 36.5t-20.5 30.5t-30.5 20.5t-36.5 7.5q-20 0 -37 -7.5t-30 -20.5t-20.5 -30.5t-7.5 -36.5z" />
    <glyph glyph-name="thorn" unicode="&#xfe;" horiz-adv-x="463" 
d="M134 268q0 -39 4 -76.5t16 -67.5t33 -48t55 -18q58 0 78 58t20 162q0 44 -4.5 81t-15.5 63.5t-30 41t-48 14.5q-35 0 -56 -15.5t-32.5 -43.5t-15.5 -66.5t-4 -84.5zM55 714h84v-239h2q5 17 16.5 31t27.5 23.5t33.5 15t34.5 5.5q48 0 81 -20t54 -56t30.5 -86t9.5 -110
q0 -46 -8 -97t-27.5 -94.5t-53.5 -72t-86 -28.5q-36 0 -67 20t-45 55h-2v-237h-84v890z" />
    <glyph glyph-name="threequarters" unicode="&#xbe;" horiz-adv-x="721" 
d="M588 153v185h-2l-110 -185h112zM582 428h72v-275h47v-54h-47v-99h-66v99h-166v60zM579 725h60l-434 -756h-60zM120 528h24q36 0 54 20t18 49q0 23 -13.5 40t-41.5 17q-21 0 -33.5 -7.5t-18.5 -18.5t-8 -22.5t-2 -20.5h-72q0 55 31 89t105 34q39 0 63 -10.5t38 -27t19 -36
t5 -37.5q0 -32 -21 -58t-63 -34v-2q43 -7 69.5 -30.5t26.5 -68.5q0 -59 -33 -95t-103 -36q-50 0 -78.5 16t-43 36t-18.5 39.5t-4 26.5v5h72q0 -12 4 -24t12.5 -22t21.5 -16.5t32 -6.5q10 0 21.5 3.5t21.5 11.5t16.5 22.5t6.5 35.5q0 34 -19.5 54t-60.5 20h-28v54z" />
    <glyph glyph-name="twosuperior" unicode="&#xb2;" horiz-adv-x="312" 
d="M21 280q0 30 8.5 55t22.5 46.5t32 39.5t37 34l37 30q29 23 45.5 45.5t16.5 57.5q0 26 -15 43t-51 17q-21 0 -33.5 -8.5t-19 -20.5t-8 -25t-1.5 -22h-72q0 29 7 54t23.5 43t43 28.5t65.5 10.5q58 0 95.5 -28.5t37.5 -85.5q0 -25 -5.5 -44t-15.5 -35.5t-25.5 -31.5
t-34.5 -30l-62 -50q-20 -16 -31 -32t-16 -31h180v-60h-261z" />
    <glyph glyph-name="registered" unicode="&#xae;" horiz-adv-x="800" 
d="M252 572h168q72 0 110 -31t38 -96q0 -58 -33.5 -86.5t-83.5 -33.5l124 -187h-66l-120 182h-71v-182h-66v434zM389 380q22 0 42.5 1.5t36.5 8t25 20.5t9 38q0 21 -8 34t-21.5 19.5t-30.5 8.5t-34 2h-90v-132h71zM29 357q0 77 29 144.5t79.5 118t118 79.5t144.5 29
t144.5 -29t118 -79.5t79.5 -118t29 -144.5t-29 -144.5t-79.5 -118t-118 -79.5t-144.5 -29t-144.5 29t-118 79.5t-79.5 118t-29 144.5zM400 46q63 0 119 24.5t97 66.5t65 98.5t24 121.5q0 64 -24 121t-65 99t-97 66.5t-119 24.5t-119 -24.5t-97 -66.5t-65 -99t-24 -121
q0 -65 24 -121.5t65 -98.5t97 -66.5t119 -24.5z" />
    <glyph glyph-name="minus" unicode="&#x2212;" horiz-adv-x="600" 
d="M47 286h506v-66h-506v66z" />
    <glyph glyph-name="eth" unicode="&#xf0;" horiz-adv-x="444" 
d="M220 470q-32 0 -52 -18t-31.5 -47t-15.5 -65t-4 -72q0 -44 4 -83t15 -68.5t31.5 -47t52.5 -17.5q33 0 54 17.5t33 47t16 68.5t4 83q0 36 -4 72t-15.5 65t-32.5 47t-55 18zM82 637l71 40q-17 17 -36.5 33.5t-40.5 33.5l64 28q20 -16 37.5 -31t34.5 -30l74 42l38 -42
l-70 -40q38 -38 68 -79.5t50.5 -90t31.5 -106t11 -127.5q0 -57 -8.5 -108t-30.5 -89.5t-59 -61.5t-95 -23t-95.5 23t-59 61.5t-30 89.5t-8.5 108q0 54 8.5 103t30 85.5t59 58t95.5 21.5q14 0 29.5 -4t29.5 -13h2q-20 31 -42 60t-48 57l-73 -41z" />
    <glyph glyph-name="multiply" unicode="&#xd7;" horiz-adv-x="600" 
d="M300 210l-181 -180l-42 42l181 181l-181 181l42 42l181 -180l180 180l43 -42l-181 -181l181 -181l-43 -42z" />
    <glyph glyph-name="threesuperior" unicode="&#xb3;" horiz-adv-x="312" 
d="M116 528h24q36 0 54 20t18 49q0 23 -13.5 40t-41.5 17q-21 0 -33.5 -7.5t-18.5 -18.5t-8 -22.5t-2 -20.5h-72q0 55 31 89t105 34q39 0 63 -10.5t38 -27t19 -36t5 -37.5q0 -32 -21 -58t-63 -34v-2q43 -7 69.5 -30.5t26.5 -68.5q0 -59 -33 -95t-103 -36q-50 0 -78.5 16
t-43 36t-18.5 39.5t-4 26.5v5h72q0 -12 4 -24t12.5 -22t21.5 -16.5t32 -6.5q10 0 21.5 3.5t21.5 11.5t16.5 22.5t6.5 35.5q0 34 -19.5 54t-60.5 20h-28v54z" />
    <glyph glyph-name="copyright" unicode="&#xa9;" horiz-adv-x="800" 
d="M603 279q-5 -38 -22.5 -67t-44 -48.5t-60 -29.5t-70.5 -10q-51 0 -91.5 17t-69 47.5t-43.5 72.5t-15 93t15 93t43.5 72.5t69 47.5t91.5 17q37 0 70.5 -9.5t60 -29t44 -48.5t22.5 -68h-60q-8 40 -44.5 67.5t-92.5 27.5q-35 0 -63.5 -13.5t-48.5 -36.5t-30.5 -54t-10.5 -66
t10.5 -66t30.5 -54t48.5 -36.5t63.5 -13.5q56 0 92.5 27.5t44.5 67.5h60zM29 357q0 77 29 144.5t79.5 118t118 79.5t144.5 29t144.5 -29t118 -79.5t79.5 -118t29 -144.5t-29 -144.5t-79.5 -118t-118 -79.5t-144.5 -29t-144.5 29t-118 79.5t-79.5 118t-29 144.5zM400 46
q63 0 119 24.5t97 66.5t65 98.5t24 121.5q0 64 -24 121t-65 99t-97 66.5t-119 24.5t-119 -24.5t-97 -66.5t-65 -99t-24 -121q0 -65 24 -121.5t65 -98.5t97 -66.5t119 -24.5z" />
    <glyph glyph-name="Aacute" unicode="&#xc1;" horiz-adv-x="500" 
d="M198 714h118l192 -714h-92l-51 196h-228l-53 -196h-92zM155 268h192l-91 345h-2zM277 895h98l-108 -142h-60z" />
    <glyph glyph-name="Acircumflex" unicode="&#xc2;" horiz-adv-x="500" 
d="M198 714h118l192 -714h-92l-51 196h-228l-53 -196h-92zM155 268h192l-91 345h-2zM219 895h77l100 -142h-78l-61 88l-61 -88h-78z" />
    <glyph glyph-name="Adieresis" unicode="&#xc4;" horiz-adv-x="500" 
d="M198 714h118l192 -714h-92l-51 196h-228l-53 -196h-92zM155 268h192l-91 345h-2zM137 878h78v-101h-78v101zM299 878h78v-101h-78v101z" />
    <glyph glyph-name="Agrave" unicode="&#xc0;" horiz-adv-x="500" 
d="M198 714h118l192 -714h-92l-51 196h-228l-53 -196h-92zM155 268h192l-91 345h-2zM237 895l70 -142h-60l-108 142h98z" />
    <glyph glyph-name="Aring" unicode="&#xc5;" horiz-adv-x="500" 
d="M198 714h118l192 -714h-92l-51 196h-228l-53 -196h-92zM155 268h192l-91 345h-2zM158 833q0 42 28.5 70.5t70.5 28.5t70.5 -28.5t28.5 -70.5t-28.5 -70.5t-70.5 -28.5t-70.5 28.5t-28.5 70.5zM200 833q0 -23 17 -40t40 -17t40 17t17 40t-17 40t-40 17t-40 -17t-17 -40z
" />
    <glyph glyph-name="Atilde" unicode="&#xc3;" horiz-adv-x="500" 
d="M198 714h118l192 -714h-92l-51 196h-228l-53 -196h-92zM155 268h192l-91 345h-2zM404 883q0 -19 -5.5 -38.5t-16 -35.5t-27 -26.5t-37.5 -10.5q-16 0 -33 6t-32.5 13t-28.5 13t-21 6q-10 0 -17 -4.5t-11.5 -11.5t-7 -14.5t-3.5 -14.5h-54q0 22 7 42t19.5 35.5t29.5 24.5
t37 9q14 0 29.5 -5.5t30.5 -13.5q15 -7 28.5 -13t23.5 -6q19 0 25.5 15.5t9.5 29.5h54z" />
    <glyph glyph-name="Ccedilla" unicode="&#xc7;" horiz-adv-x="519" 
d="M244 -12q-65 8 -103.5 43t-59 86t-27 114t-6.5 126q0 67 8 133.5t33 119.5t70 85.5t119 32.5q109 0 158.5 -58.5t52.5 -163.5h-92q-1 30 -7 57.5t-19.5 48t-36 32.5t-56.5 12q-46 0 -73 -23.5t-41.5 -64t-19 -95t-4.5 -116.5t4.5 -116.5t19 -95t41.5 -64t73 -23.5
q40 0 64 17t37.5 44t18 60t5.5 66h92q-3 -50 -15 -96t-36.5 -82t-63.5 -58t-95 -23l-27 -40l2 -2q5 2 15 4t15 2q13 0 27 -4t26 -13t19.5 -23.5t7.5 -35.5q0 -19 -9 -35t-23.5 -27t-34 -17.5t-40.5 -6.5q-28 0 -55 5t-44 15l15 34q1 0 9 -2l18 -4.5t20.5 -4t16.5 -1.5
q31 0 43 12t12 29t-14.5 27t-32.5 10q-16 0 -25.5 -2.5t-12.5 -4.5l-15 18z" />
    <glyph glyph-name="Eacute" unicode="&#xc9;" horiz-adv-x="463" 
d="M58 714h369v-78h-281v-224h265v-78h-265v-256h293v-78h-381v714zM264 895h98l-108 -142h-60z" />
    <glyph glyph-name="Ecircumflex" unicode="&#xca;" horiz-adv-x="463" 
d="M58 714h369v-78h-281v-224h265v-78h-265v-256h293v-78h-381v714zM206 895h77l100 -142h-78l-61 88l-61 -88h-78z" />
    <glyph glyph-name="Edieresis" unicode="&#xcb;" horiz-adv-x="463" 
d="M58 714h369v-78h-281v-224h265v-78h-265v-256h293v-78h-381v714zM124 878h78v-101h-78v101zM286 878h78v-101h-78v101z" />
    <glyph glyph-name="Egrave" unicode="&#xc8;" horiz-adv-x="463" 
d="M58 714h369v-78h-281v-224h265v-78h-265v-256h293v-78h-381v714zM224 895l70 -142h-60l-108 142h98z" />
    <glyph glyph-name="Iacute" unicode="&#xcd;" 
d="M58 714h88v-714h-88v714zM122 895h98l-108 -142h-60z" />
    <glyph glyph-name="Icircumflex" unicode="&#xce;" 
d="M58 714h88v-714h-88v714zM64 895h77l100 -142h-78l-61 88l-61 -88h-78z" />
    <glyph glyph-name="Idieresis" unicode="&#xcf;" 
d="M58 714h88v-714h-88v714zM-18 878h78v-101h-78v101zM144 878h78v-101h-78v101z" />
    <glyph glyph-name="Igrave" unicode="&#xcc;" 
d="M58 714h88v-714h-88v714zM82 895l70 -142h-60l-108 142h98z" />
    <glyph glyph-name="Ntilde" unicode="&#xd1;" horiz-adv-x="556" 
d="M58 714h114l236 -596h2v596h88v-714h-121l-229 578h-2v-578h-88v714zM425 883q0 -19 -5.5 -38.5t-16 -35.5t-27 -26.5t-37.5 -10.5q-16 0 -33 6t-32.5 13t-28.5 13t-21 6q-10 0 -17 -4.5t-11.5 -11.5t-7 -14.5t-3.5 -14.5h-54q0 22 7 42t19.5 35.5t29.5 24.5t37 9
q14 0 29.5 -5.5t30.5 -13.5q15 -7 28.5 -13t23.5 -6q19 0 25.5 15.5t9.5 29.5h54z" />
    <glyph glyph-name="Oacute" unicode="&#xd3;" horiz-adv-x="556" 
d="M278 728q74 0 119 -32.5t70 -85.5t33 -119.5t8 -133.5q0 -68 -8 -134t-33 -119t-70 -85.5t-119 -32.5t-119 32.5t-70 85.5t-33 119t-8 134q0 67 8 133.5t33 119.5t70 85.5t119 32.5zM278 656q-46 0 -73 -23.5t-41.5 -64t-19 -95t-4.5 -116.5t4.5 -116.5t19 -95t41.5 -64
t73 -23.5t73 23.5t41.5 64t19 95t4.5 116.5t-4.5 116.5t-19 95t-41.5 64t-73 23.5zM298 895h98l-108 -142h-60z" />
    <glyph glyph-name="Ocircumflex" unicode="&#xd4;" horiz-adv-x="556" 
d="M278 728q74 0 119 -32.5t70 -85.5t33 -119.5t8 -133.5q0 -68 -8 -134t-33 -119t-70 -85.5t-119 -32.5t-119 32.5t-70 85.5t-33 119t-8 134q0 67 8 133.5t33 119.5t70 85.5t119 32.5zM278 656q-46 0 -73 -23.5t-41.5 -64t-19 -95t-4.5 -116.5t4.5 -116.5t19 -95t41.5 -64
t73 -23.5t73 23.5t41.5 64t19 95t4.5 116.5t-4.5 116.5t-19 95t-41.5 64t-73 23.5zM240 895h77l100 -142h-78l-61 88l-61 -88h-78z" />
    <glyph glyph-name="Odieresis" unicode="&#xd6;" horiz-adv-x="556" 
d="M278 728q74 0 119 -32.5t70 -85.5t33 -119.5t8 -133.5q0 -68 -8 -134t-33 -119t-70 -85.5t-119 -32.5t-119 32.5t-70 85.5t-33 119t-8 134q0 67 8 133.5t33 119.5t70 85.5t119 32.5zM278 656q-46 0 -73 -23.5t-41.5 -64t-19 -95t-4.5 -116.5t4.5 -116.5t19 -95t41.5 -64
t73 -23.5t73 23.5t41.5 64t19 95t4.5 116.5t-4.5 116.5t-19 95t-41.5 64t-73 23.5zM158 878h78v-101h-78v101zM320 878h78v-101h-78v101z" />
    <glyph glyph-name="Ograve" unicode="&#xd2;" horiz-adv-x="556" 
d="M278 728q74 0 119 -32.5t70 -85.5t33 -119.5t8 -133.5q0 -68 -8 -134t-33 -119t-70 -85.5t-119 -32.5t-119 32.5t-70 85.5t-33 119t-8 134q0 67 8 133.5t33 119.5t70 85.5t119 32.5zM278 656q-46 0 -73 -23.5t-41.5 -64t-19 -95t-4.5 -116.5t4.5 -116.5t19 -95t41.5 -64
t73 -23.5t73 23.5t41.5 64t19 95t4.5 116.5t-4.5 116.5t-19 95t-41.5 64t-73 23.5zM258 895l70 -142h-60l-108 142h98z" />
    <glyph glyph-name="Otilde" unicode="&#xd5;" horiz-adv-x="556" 
d="M278 728q74 0 119 -32.5t70 -85.5t33 -119.5t8 -133.5q0 -68 -8 -134t-33 -119t-70 -85.5t-119 -32.5t-119 32.5t-70 85.5t-33 119t-8 134q0 67 8 133.5t33 119.5t70 85.5t119 32.5zM278 656q-46 0 -73 -23.5t-41.5 -64t-19 -95t-4.5 -116.5t4.5 -116.5t19 -95t41.5 -64
t73 -23.5t73 23.5t41.5 64t19 95t4.5 116.5t-4.5 116.5t-19 95t-41.5 64t-73 23.5zM425 883q0 -19 -5.5 -38.5t-16 -35.5t-27 -26.5t-37.5 -10.5q-16 0 -33 6t-32.5 13t-28.5 13t-21 6q-10 0 -17 -4.5t-11.5 -11.5t-7 -14.5t-3.5 -14.5h-54q0 22 7 42t19.5 35.5t29.5 24.5
t37 9q14 0 29.5 -5.5t30.5 -13.5q15 -7 28.5 -13t23.5 -6q19 0 25.5 15.5t9.5 29.5h54z" />
    <glyph glyph-name="Scaron" unicode="&#x160;" horiz-adv-x="500" 
d="M361 529q0 28 -5.5 51.5t-18.5 40t-34.5 26t-52.5 9.5q-56 0 -87 -29.5t-31 -86.5q0 -50 25 -77t62.5 -43t81 -28.5t81 -33.5t62.5 -58t25 -102q0 -62 -20.5 -103t-52.5 -65t-71.5 -34t-77.5 -10q-63 0 -104.5 16t-66 46t-35 74.5t-10.5 101.5h88q0 -30 3 -59.5t16 -53.5
t40 -38.5t75 -14.5q26 0 49 9t39.5 25.5t26 39.5t9.5 52q0 38 -14.5 62t-38 40.5t-54 27t-62 21.5t-62 24.5t-54 35t-38 54.5t-14.5 82q0 25 7 58.5t29.5 64.5t63.5 52.5t109 21.5q103 0 150.5 -50t49.5 -149h-88zM288 753h-77l-100 142h78l61 -88l61 88h78z" />
    <glyph glyph-name="Uacute" unicode="&#xda;" horiz-adv-x="519" 
d="M50 714h88v-502q0 -79 27.5 -116.5t93.5 -37.5q70 0 96 39.5t26 114.5v502h88v-502q0 -103 -52.5 -164.5t-157.5 -61.5q-108 0 -158.5 57.5t-50.5 168.5v502zM280 895h98l-108 -142h-60z" />
    <glyph glyph-name="Ucircumflex" unicode="&#xdb;" horiz-adv-x="519" 
d="M50 714h88v-502q0 -79 27.5 -116.5t93.5 -37.5q70 0 96 39.5t26 114.5v502h88v-502q0 -103 -52.5 -164.5t-157.5 -61.5q-108 0 -158.5 57.5t-50.5 168.5v502zM222 895h77l100 -142h-78l-61 88l-61 -88h-78z" />
    <glyph glyph-name="Udieresis" unicode="&#xdc;" horiz-adv-x="519" 
d="M50 714h88v-502q0 -79 27.5 -116.5t93.5 -37.5q70 0 96 39.5t26 114.5v502h88v-502q0 -103 -52.5 -164.5t-157.5 -61.5q-108 0 -158.5 57.5t-50.5 168.5v502zM140 878h78v-101h-78v101zM302 878h78v-101h-78v101z" />
    <glyph glyph-name="Ugrave" unicode="&#xd9;" horiz-adv-x="519" 
d="M50 714h88v-502q0 -79 27.5 -116.5t93.5 -37.5q70 0 96 39.5t26 114.5v502h88v-502q0 -103 -52.5 -164.5t-157.5 -61.5q-108 0 -158.5 57.5t-50.5 168.5v502zM240 895l70 -142h-60l-108 142h98z" />
    <glyph glyph-name="Yacute" unicode="&#xdd;" horiz-adv-x="462" 
d="M-2 714h97l136 -334l141 334h92l-189 -434v-280h-88v280zM251 895h98l-108 -142h-60z" />
    <glyph glyph-name="Ydieresis" unicode="&#x178;" horiz-adv-x="462" 
d="M-2 714h97l136 -334l141 334h92l-189 -434v-280h-88v280zM111 878h78v-101h-78v101zM273 878h78v-101h-78v101z" />
    <glyph glyph-name="Zcaron" unicode="&#x17d;" horiz-adv-x="463" 
d="M23 74l321 562h-303v78h395v-81l-321 -555h325v-78h-417v74zM270 753h-77l-100 142h78l61 -88l61 88h78z" />
    <glyph glyph-name="aacute" unicode="&#xe1;" horiz-adv-x="444" 
d="M42 374q0 91 42 133.5t138 42.5q61 0 94 -16t48.5 -40t18 -50.5t2.5 -47.5v-299q0 -17 3 -30t23 -13q8 0 12.5 1.5t7.5 3.5v-60q-5 -1 -19 -3t-30 -2q-12 0 -25 1t-23.5 7.5t-18.5 20.5t-9 40h-2q-20 -36 -55.5 -56.5t-73.5 -20.5q-75 0 -110.5 42t-35.5 114
q0 57 24.5 94.5t76.5 53.5l113 34q23 7 35.5 14.5t18 16.5t6.5 21t1 29q0 38 -22 58.5t-64 20.5q-35 0 -53.5 -13.5t-27 -31.5t-10 -35.5t-1.5 -24.5v-5h-84zM301 292q-12 -12 -30.5 -20.5t-38.5 -15t-40 -12.5t-34 -15q-20 -13 -30.5 -31.5t-10.5 -53.5q0 -41 16.5 -66.5
t59.5 -25.5q21 0 40.5 8t34.5 22t24 32.5t9 39.5v138zM242 752h98l-108 -142h-60z" />
    <glyph glyph-name="acircumflex" unicode="&#xe2;" horiz-adv-x="444" 
d="M42 374q0 91 42 133.5t138 42.5q61 0 94 -16t48.5 -40t18 -50.5t2.5 -47.5v-299q0 -17 3 -30t23 -13q8 0 12.5 1.5t7.5 3.5v-60q-5 -1 -19 -3t-30 -2q-12 0 -25 1t-23.5 7.5t-18.5 20.5t-9 40h-2q-20 -36 -55.5 -56.5t-73.5 -20.5q-75 0 -110.5 42t-35.5 114
q0 57 24.5 94.5t76.5 53.5l113 34q23 7 35.5 14.5t18 16.5t6.5 21t1 29q0 38 -22 58.5t-64 20.5q-35 0 -53.5 -13.5t-27 -31.5t-10 -35.5t-1.5 -24.5v-5h-84zM301 292q-12 -12 -30.5 -20.5t-38.5 -15t-40 -12.5t-34 -15q-20 -13 -30.5 -31.5t-10.5 -53.5q0 -41 16.5 -66.5
t59.5 -25.5q21 0 40.5 8t34.5 22t24 32.5t9 39.5v138zM184 752h77l100 -142h-78l-61 88l-61 -88h-78z" />
    <glyph glyph-name="adieresis" unicode="&#xe4;" horiz-adv-x="444" 
d="M42 374q0 91 42 133.5t138 42.5q61 0 94 -16t48.5 -40t18 -50.5t2.5 -47.5v-299q0 -17 3 -30t23 -13q8 0 12.5 1.5t7.5 3.5v-60q-5 -1 -19 -3t-30 -2q-12 0 -25 1t-23.5 7.5t-18.5 20.5t-9 40h-2q-20 -36 -55.5 -56.5t-73.5 -20.5q-75 0 -110.5 42t-35.5 114
q0 57 24.5 94.5t76.5 53.5l113 34q23 7 35.5 14.5t18 16.5t6.5 21t1 29q0 38 -22 58.5t-64 20.5q-35 0 -53.5 -13.5t-27 -31.5t-10 -35.5t-1.5 -24.5v-5h-84zM301 292q-12 -12 -30.5 -20.5t-38.5 -15t-40 -12.5t-34 -15q-20 -13 -30.5 -31.5t-10.5 -53.5q0 -41 16.5 -66.5
t59.5 -25.5q21 0 40.5 8t34.5 22t24 32.5t9 39.5v138zM102 735h78v-101h-78v101zM264 735h78v-101h-78v101z" />
    <glyph glyph-name="agrave" unicode="&#xe0;" horiz-adv-x="444" 
d="M42 374q0 91 42 133.5t138 42.5q61 0 94 -16t48.5 -40t18 -50.5t2.5 -47.5v-299q0 -17 3 -30t23 -13q8 0 12.5 1.5t7.5 3.5v-60q-5 -1 -19 -3t-30 -2q-12 0 -25 1t-23.5 7.5t-18.5 20.5t-9 40h-2q-20 -36 -55.5 -56.5t-73.5 -20.5q-75 0 -110.5 42t-35.5 114
q0 57 24.5 94.5t76.5 53.5l113 34q23 7 35.5 14.5t18 16.5t6.5 21t1 29q0 38 -22 58.5t-64 20.5q-35 0 -53.5 -13.5t-27 -31.5t-10 -35.5t-1.5 -24.5v-5h-84zM301 292q-12 -12 -30.5 -20.5t-38.5 -15t-40 -12.5t-34 -15q-20 -13 -30.5 -31.5t-10.5 -53.5q0 -41 16.5 -66.5
t59.5 -25.5q21 0 40.5 8t34.5 22t24 32.5t9 39.5v138zM202 752l70 -142h-60l-108 142h98z" />
    <glyph glyph-name="aring" unicode="&#xe5;" horiz-adv-x="444" 
d="M42 374q0 91 42 133.5t138 42.5q61 0 94 -16t48.5 -40t18 -50.5t2.5 -47.5v-299q0 -17 3 -30t23 -13q8 0 12.5 1.5t7.5 3.5v-60q-5 -1 -19 -3t-30 -2q-12 0 -25 1t-23.5 7.5t-18.5 20.5t-9 40h-2q-20 -36 -55.5 -56.5t-73.5 -20.5q-75 0 -110.5 42t-35.5 114
q0 57 24.5 94.5t76.5 53.5l113 34q23 7 35.5 14.5t18 16.5t6.5 21t1 29q0 38 -22 58.5t-64 20.5q-35 0 -53.5 -13.5t-27 -31.5t-10 -35.5t-1.5 -24.5v-5h-84zM301 292q-12 -12 -30.5 -20.5t-38.5 -15t-40 -12.5t-34 -15q-20 -13 -30.5 -31.5t-10.5 -53.5q0 -41 16.5 -66.5
t59.5 -25.5q21 0 40.5 8t34.5 22t24 32.5t9 39.5v138zM123 690q0 42 28.5 70.5t70.5 28.5t70.5 -28.5t28.5 -70.5t-28.5 -70.5t-70.5 -28.5t-70.5 28.5t-28.5 70.5zM165 690q0 -23 17 -40t40 -17t40 17t17 40t-17 40t-40 17t-40 -17t-17 -40z" />
    <glyph glyph-name="atilde" unicode="&#xe3;" horiz-adv-x="444" 
d="M42 374q0 91 42 133.5t138 42.5q61 0 94 -16t48.5 -40t18 -50.5t2.5 -47.5v-299q0 -17 3 -30t23 -13q8 0 12.5 1.5t7.5 3.5v-60q-5 -1 -19 -3t-30 -2q-12 0 -25 1t-23.5 7.5t-18.5 20.5t-9 40h-2q-20 -36 -55.5 -56.5t-73.5 -20.5q-75 0 -110.5 42t-35.5 114
q0 57 24.5 94.5t76.5 53.5l113 34q23 7 35.5 14.5t18 16.5t6.5 21t1 29q0 38 -22 58.5t-64 20.5q-35 0 -53.5 -13.5t-27 -31.5t-10 -35.5t-1.5 -24.5v-5h-84zM301 292q-12 -12 -30.5 -20.5t-38.5 -15t-40 -12.5t-34 -15q-20 -13 -30.5 -31.5t-10.5 -53.5q0 -41 16.5 -66.5
t59.5 -25.5q21 0 40.5 8t34.5 22t24 32.5t9 39.5v138zM369 740q0 -19 -5.5 -38.5t-16 -35.5t-27 -26.5t-37.5 -10.5q-16 0 -33 6t-32.5 13t-28.5 13t-21 6q-10 0 -17 -4.5t-11.5 -11.5t-7 -14.5t-3.5 -14.5h-54q0 22 7 42t19.5 35.5t29.5 24.5t37 9q14 0 29.5 -5.5
t30.5 -13.5q15 -7 28.5 -13t23.5 -6q19 0 25.5 15.5t9.5 29.5h54z" />
    <glyph glyph-name="ccedilla" unicode="&#xe7;" horiz-adv-x="426" 
d="M198 -14q-88 8 -127 76t-39 199q0 50 6.5 101.5t27 93t58 68t99.5 26.5q55 0 88.5 -19t52 -46.5t24.5 -58t6 -53.5h-84q0 19 -4.5 39t-14 36t-26 26t-40.5 10q-20 0 -38.5 -7t-33.5 -30.5t-24 -67.5t-9 -117q0 -26 1.5 -62t11.5 -69t30.5 -56t58.5 -23q27 0 44 13
t27 32.5t13.5 43t3.5 45.5h84q0 -30 -7.5 -63t-25.5 -61.5t-47.5 -49t-73.5 -25.5l-29 -41l2 -2q5 2 15 4t15 2q13 0 27 -4t26 -13t19.5 -23.5t7.5 -35.5q0 -19 -9 -35t-23.5 -27t-34 -17.5t-40.5 -6.5q-28 0 -55 5t-44 15l15 34q1 0 9 -2l18 -4.5t20.5 -4t16.5 -1.5
q31 0 43 12t12 29t-14.5 27t-32.5 10q-16 0 -25.5 -2.5t-12.5 -4.5l-15 18z" />
    <glyph glyph-name="eacute" unicode="&#xe9;" horiz-adv-x="444" 
d="M319 324v29q0 22 -4 45.5t-14.5 42.5t-28.5 31t-46 12q-33 0 -52.5 -17.5t-29.5 -40.5t-13 -46.5t-3 -35.5v-20h191zM125 258q0 -31 1.5 -67t11.5 -67t30.5 -51.5t59.5 -20.5q30 0 48 13.5t27.5 33t12.5 41t3 36.5h84q0 -21 -7.5 -53.5t-27.5 -63t-55 -52t-90 -21.5
q-99 0 -142.5 68t-43.5 207q0 50 6.5 101.5t27 93t58 68t99.5 26.5q61 0 97 -24t54 -61.5t23 -83.5t5 -89v-34h-282zM242 752h98l-108 -142h-60z" />
    <glyph glyph-name="ecircumflex" unicode="&#xea;" horiz-adv-x="444" 
d="M319 324v29q0 22 -4 45.5t-14.5 42.5t-28.5 31t-46 12q-33 0 -52.5 -17.5t-29.5 -40.5t-13 -46.5t-3 -35.5v-20h191zM125 258q0 -31 1.5 -67t11.5 -67t30.5 -51.5t59.5 -20.5q30 0 48 13.5t27.5 33t12.5 41t3 36.5h84q0 -21 -7.5 -53.5t-27.5 -63t-55 -52t-90 -21.5
q-99 0 -142.5 68t-43.5 207q0 50 6.5 101.5t27 93t58 68t99.5 26.5q61 0 97 -24t54 -61.5t23 -83.5t5 -89v-34h-282zM184 752h77l100 -142h-78l-61 88l-61 -88h-78z" />
    <glyph glyph-name="edieresis" unicode="&#xeb;" horiz-adv-x="444" 
d="M319 324v29q0 22 -4 45.5t-14.5 42.5t-28.5 31t-46 12q-33 0 -52.5 -17.5t-29.5 -40.5t-13 -46.5t-3 -35.5v-20h191zM125 258q0 -31 1.5 -67t11.5 -67t30.5 -51.5t59.5 -20.5q30 0 48 13.5t27.5 33t12.5 41t3 36.5h84q0 -21 -7.5 -53.5t-27.5 -63t-55 -52t-90 -21.5
q-99 0 -142.5 68t-43.5 207q0 50 6.5 101.5t27 93t58 68t99.5 26.5q61 0 97 -24t54 -61.5t23 -83.5t5 -89v-34h-282zM102 735h78v-101h-78v101zM264 735h78v-101h-78v101z" />
    <glyph glyph-name="egrave" unicode="&#xe8;" horiz-adv-x="444" 
d="M319 324v29q0 22 -4 45.5t-14.5 42.5t-28.5 31t-46 12q-33 0 -52.5 -17.5t-29.5 -40.5t-13 -46.5t-3 -35.5v-20h191zM125 258q0 -31 1.5 -67t11.5 -67t30.5 -51.5t59.5 -20.5q30 0 48 13.5t27.5 33t12.5 41t3 36.5h84q0 -21 -7.5 -53.5t-27.5 -63t-55 -52t-90 -21.5
q-99 0 -142.5 68t-43.5 207q0 50 6.5 101.5t27 93t58 68t99.5 26.5q61 0 97 -24t54 -61.5t23 -83.5t5 -89v-34h-282zM202 752l70 -142h-60l-108 142h98z" />
    <glyph glyph-name="iacute" unicode="&#xed;" 
d="M60 536h84v-536h-84v536zM122 752h98l-108 -142h-60z" />
    <glyph glyph-name="icircumflex" unicode="&#xee;" 
d="M60 536h84v-536h-84v536zM64 752h77l100 -142h-78l-61 88l-61 -88h-78z" />
    <glyph glyph-name="idieresis" unicode="&#xef;" 
d="M60 536h84v-536h-84v536zM-18 735h78v-101h-78v101zM144 735h78v-101h-78v101z" />
    <glyph glyph-name="igrave" unicode="&#xec;" 
d="M60 536h84v-536h-84v536zM82 752l70 -142h-60l-108 142h98z" />
    <glyph glyph-name="ntilde" unicode="&#xf1;" horiz-adv-x="463" 
d="M55 536h80v-63h2q17 37 54 57t76 20q53 0 81.5 -17.5t42 -43.5t15.5 -55.5t2 -53.5v-380h-84v370q0 15 -1.5 34t-9.5 35.5t-24 27.5t-44 11q-17 0 -35.5 -6t-34.5 -19t-26 -33.5t-10 -49.5v-370h-84v536zM379 740q0 -19 -5.5 -38.5t-16 -35.5t-27 -26.5t-37.5 -10.5
q-16 0 -33 6t-32.5 13t-28.5 13t-21 6q-10 0 -17 -4.5t-11.5 -11.5t-7 -14.5t-3.5 -14.5h-54q0 22 7 42t19.5 35.5t29.5 24.5t37 9q14 0 29.5 -5.5t30.5 -13.5q15 -7 28.5 -13t23.5 -6q19 0 25.5 15.5t9.5 29.5h54z" />
    <glyph glyph-name="oacute" unicode="&#xf3;" horiz-adv-x="444" 
d="M29 268q0 57 8.5 108t30 89.5t59 61.5t95.5 23t95.5 -23t59 -61.5t30 -89.5t8.5 -108t-8.5 -108t-30.5 -89.5t-59 -61.5t-95 -23t-95.5 23t-59 61.5t-30 89.5t-8.5 108zM220 52q33 0 54 17.5t33 47t16 68.5t4 83q0 43 -4 82.5t-15.5 69t-32.5 47t-55 17.5
q-32 0 -52 -17.5t-31.5 -47t-15.5 -69t-4 -82.5q0 -44 4 -83t15 -68.5t31.5 -47t52.5 -17.5zM242 752h98l-108 -142h-60z" />
    <glyph glyph-name="ocircumflex" unicode="&#xf4;" horiz-adv-x="444" 
d="M29 268q0 57 8.5 108t30 89.5t59 61.5t95.5 23t95.5 -23t59 -61.5t30 -89.5t8.5 -108t-8.5 -108t-30.5 -89.5t-59 -61.5t-95 -23t-95.5 23t-59 61.5t-30 89.5t-8.5 108zM220 52q33 0 54 17.5t33 47t16 68.5t4 83q0 43 -4 82.5t-15.5 69t-32.5 47t-55 17.5
q-32 0 -52 -17.5t-31.5 -47t-15.5 -69t-4 -82.5q0 -44 4 -83t15 -68.5t31.5 -47t52.5 -17.5zM184 752h77l100 -142h-78l-61 88l-61 -88h-78z" />
    <glyph glyph-name="odieresis" unicode="&#xf6;" horiz-adv-x="444" 
d="M29 268q0 57 8.5 108t30 89.5t59 61.5t95.5 23t95.5 -23t59 -61.5t30 -89.5t8.5 -108t-8.5 -108t-30.5 -89.5t-59 -61.5t-95 -23t-95.5 23t-59 61.5t-30 89.5t-8.5 108zM220 52q33 0 54 17.5t33 47t16 68.5t4 83q0 43 -4 82.5t-15.5 69t-32.5 47t-55 17.5
q-32 0 -52 -17.5t-31.5 -47t-15.5 -69t-4 -82.5q0 -44 4 -83t15 -68.5t31.5 -47t52.5 -17.5zM102 735h78v-101h-78v101zM264 735h78v-101h-78v101z" />
    <glyph glyph-name="ograve" unicode="&#xf2;" horiz-adv-x="444" 
d="M29 268q0 57 8.5 108t30 89.5t59 61.5t95.5 23t95.5 -23t59 -61.5t30 -89.5t8.5 -108t-8.5 -108t-30.5 -89.5t-59 -61.5t-95 -23t-95.5 23t-59 61.5t-30 89.5t-8.5 108zM220 52q33 0 54 17.5t33 47t16 68.5t4 83q0 43 -4 82.5t-15.5 69t-32.5 47t-55 17.5
q-32 0 -52 -17.5t-31.5 -47t-15.5 -69t-4 -82.5q0 -44 4 -83t15 -68.5t31.5 -47t52.5 -17.5zM202 752l70 -142h-60l-108 142h98z" />
    <glyph glyph-name="otilde" unicode="&#xf5;" horiz-adv-x="444" 
d="M29 268q0 57 8.5 108t30 89.5t59 61.5t95.5 23t95.5 -23t59 -61.5t30 -89.5t8.5 -108t-8.5 -108t-30.5 -89.5t-59 -61.5t-95 -23t-95.5 23t-59 61.5t-30 89.5t-8.5 108zM220 52q33 0 54 17.5t33 47t16 68.5t4 83q0 43 -4 82.5t-15.5 69t-32.5 47t-55 17.5
q-32 0 -52 -17.5t-31.5 -47t-15.5 -69t-4 -82.5q0 -44 4 -83t15 -68.5t31.5 -47t52.5 -17.5zM369 740q0 -19 -5.5 -38.5t-16 -35.5t-27 -26.5t-37.5 -10.5q-16 0 -33 6t-32.5 13t-28.5 13t-21 6q-10 0 -17 -4.5t-11.5 -11.5t-7 -14.5t-3.5 -14.5h-54q0 22 7 42t19.5 35.5
t29.5 24.5t37 9q14 0 29.5 -5.5t30.5 -13.5q15 -7 28.5 -13t23.5 -6q19 0 25.5 15.5t9.5 29.5h54z" />
    <glyph glyph-name="scaron" unicode="&#x161;" horiz-adv-x="407" 
d="M285 379q0 51 -16.5 78t-62.5 27q-10 0 -25 -2.5t-28.5 -10.5t-23.5 -24.5t-10 -44.5q0 -24 11.5 -39t30 -25t42 -17.5t48.5 -15.5q24 -8 47.5 -18t42 -26t30 -41.5t11.5 -65.5q0 -42 -13 -73.5t-36 -52.5t-55 -31.5t-69 -10.5q-68 0 -105.5 22t-55 52.5t-20.5 62.5
t-3 53h84q0 -24 4 -46.5t15 -40t30.5 -27.5t50.5 -10q10 0 25 3t29.5 13t24.5 27t10 46q0 27 -11.5 44.5t-30 29t-42 19.5t-47.5 16t-48 17.5t-42.5 25.5t-30 41.5t-11.5 67.5q0 37 13.5 65t37 46.5t54.5 27.5t66 9q58 0 91 -18t48.5 -44t19.5 -55.5t4 -53.5h-84zM242 610
h-77l-100 142h78l61 -88l61 88h78z" />
    <glyph glyph-name="uacute" unicode="&#xfa;" horiz-adv-x="463" 
d="M408 0h-80v63h-2q-17 -37 -54 -57t-76 -20q-53 0 -81.5 17.5t-42 43.5t-15.5 55.5t-2 53.5v380h84v-370q0 -15 1.5 -34t9.5 -35.5t23.5 -27.5t44.5 -11q17 0 35.5 6t34.5 19t26 33.5t10 49.5v370h84v-536zM252 752h98l-108 -142h-60z" />
    <glyph glyph-name="ucircumflex" unicode="&#xfb;" horiz-adv-x="463" 
d="M408 0h-80v63h-2q-17 -37 -54 -57t-76 -20q-53 0 -81.5 17.5t-42 43.5t-15.5 55.5t-2 53.5v380h84v-370q0 -15 1.5 -34t9.5 -35.5t23.5 -27.5t44.5 -11q17 0 35.5 6t34.5 19t26 33.5t10 49.5v370h84v-536zM194 752h77l100 -142h-78l-61 88l-61 -88h-78z" />
    <glyph glyph-name="udieresis" unicode="&#xfc;" horiz-adv-x="463" 
d="M408 0h-80v63h-2q-17 -37 -54 -57t-76 -20q-53 0 -81.5 17.5t-42 43.5t-15.5 55.5t-2 53.5v380h84v-370q0 -15 1.5 -34t9.5 -35.5t23.5 -27.5t44.5 -11q17 0 35.5 6t34.5 19t26 33.5t10 49.5v370h84v-536zM112 735h78v-101h-78v101zM274 735h78v-101h-78v101z" />
    <glyph glyph-name="ugrave" unicode="&#xf9;" horiz-adv-x="463" 
d="M408 0h-80v63h-2q-17 -37 -54 -57t-76 -20q-53 0 -81.5 17.5t-42 43.5t-15.5 55.5t-2 53.5v380h84v-370q0 -15 1.5 -34t9.5 -35.5t23.5 -27.5t44.5 -11q17 0 35.5 6t34.5 19t26 33.5t10 49.5v370h84v-536zM212 752l70 -142h-60l-108 142h98z" />
    <glyph glyph-name="yacute" unicode="&#xfd;" horiz-adv-x="406" 
d="M10 536h92l106 -430h2l94 430h92l-155 -572q-8 -28 -17 -53t-24.5 -44.5t-39.5 -31t-62 -11.5q-25 0 -37.5 1t-23.5 2v66q18 -3 49 -3q29 0 43.5 15t22.5 37l16 47zM223 752h98l-108 -142h-60z" />
    <glyph glyph-name="ydieresis" unicode="&#xff;" horiz-adv-x="406" 
d="M10 536h92l106 -430h2l94 430h92l-155 -572q-8 -28 -17 -53t-24.5 -44.5t-39.5 -31t-62 -11.5q-25 0 -37.5 1t-23.5 2v66q18 -3 49 -3q29 0 43.5 15t22.5 37l16 47zM83 735h78v-101h-78v101zM245 735h78v-101h-78v101z" />
    <glyph glyph-name="zcaron" unicode="&#x17e;" horiz-adv-x="389" 
d="M39 536h323v-70l-240 -394h238v-72h-333v66l243 398h-231v72zM233 610h-77l-100 142h78l61 -88l61 88h78z" />
    <glyph glyph-name="Euro" unicode="&#x20ac;" horiz-adv-x="480" 
d="M442 589q-18 18 -48.5 31t-75.5 13q-71 0 -107 -50.5t-43 -132.5h237l-19 -64h-225q-1 -8 -1 -18v-19v-20q0 -9 1 -17h202l-20 -64h-175q8 -94 46.5 -140.5t103.5 -46.5q45 0 74.5 12.5t49.5 31.5v-82q-15 -13 -49 -24.5t-87 -11.5q-90 0 -146.5 62t-70.5 199h-66l19 64
h41q-1 7 -1.5 17.5t-0.5 19.5t0.5 19t1.5 18h-60l19 64h46q6 58 22 106t43 81.5t65 52t89 18.5q49 0 83.5 -12t51.5 -26v-81z" />
    <glyph glyph-name="G" unicode="G" horiz-adv-x="537" 
d="M397 516q-2 28 -8.5 53.5t-20 44.5t-35.5 30.5t-55 11.5q-46 0 -73 -23.5t-41.5 -64t-19 -95t-4.5 -116.5t4.5 -116.5t19 -95t41.5 -64t73 -23.5t72 24.5t39 60.5t16.5 78t3.5 78h-141v72h221v-371h-66v97h-2q-14 -46 -54.5 -78.5t-99.5 -32.5q-70 0 -113 31t-66.5 82.5
t-31.5 118.5t-8 139q0 67 8 133.5t33 119.5t70 85.5t119 32.5q51 0 86.5 -13t59 -33.5t36.5 -45.5t19.5 -48.5t8 -43t1.5 -28.5h-92z" />
    <glyph glyph-name="Gbreve" unicode="&#x11e;" horiz-adv-x="537" 
d="M397 516q-2 28 -8.5 53.5t-20 44.5t-35.5 30.5t-55 11.5q-46 0 -73 -23.5t-41.5 -64t-19 -95t-4.5 -116.5t4.5 -116.5t19 -95t41.5 -64t73 -23.5t72 24.5t39 60.5t16.5 78t3.5 78h-141v72h221v-371h-66v97h-2q-14 -46 -54.5 -78.5t-99.5 -32.5q-70 0 -113 31t-66.5 82.5
t-31.5 118.5t-8 139q0 67 8 133.5t33 119.5t70 85.5t119 32.5q51 0 86.5 -13t59 -33.5t36.5 -45.5t19.5 -48.5t8 -43t1.5 -28.5h-92zM185 910q0 -14 7 -26t18 -21t24.5 -14.5t27.5 -5.5q13 0 27 5.5t25 14.5t18 21t7 26h48q0 -15 -5.5 -37t-19.5 -42t-38 -34t-62 -14t-62 14
t-38 34t-19.5 42t-5.5 37h48z" />
    <glyph glyph-name="gbreve" unicode="&#x11f;" horiz-adv-x="463" 
d="M221 478q-29 0 -48 -15t-30 -42t-15.5 -66t-4.5 -87q0 -33 3.5 -67.5t13.5 -63t29 -47t51 -18.5q34 0 55.5 15t33.5 41.5t16 62.5t4 77q0 39 -4 76.5t-16 67.5t-33 48t-55 18zM408 34q0 -60 -13.5 -101.5t-37.5 -67.5t-57.5 -37.5t-73.5 -11.5q-12 0 -39.5 2t-56 14.5
t-52 40t-28.5 77.5h84q3 -37 28 -52.5t58 -15.5q40 0 61.5 13.5t31 32.5t10.5 39.5t1 34.5v70h-2q-14 -34 -47.5 -53t-73.5 -19q-39 0 -66.5 15t-46 39t-29 53.5t-16 59.5t-7 56.5t-1.5 44.5q0 54 8 105t28.5 90.5t54 63t84.5 23.5q44 0 76 -25t40 -57h2v68h80v-502z
M147 761q0 -14 7 -26t18 -21t24.5 -14.5t27.5 -5.5q13 0 27 5.5t25 14.5t18 21t7 26h48q0 -15 -5.5 -37t-19.5 -42t-38 -34t-62 -14t-62 14t-38 34t-19.5 42t-5.5 37h48z" />
    <glyph glyph-name="uni0130" unicode="&#x130;" 
d="M58 714h88v-714h-88v714zM64 890h78v-101h-78v101z" />
    <glyph glyph-name="Scedilla" unicode="&#x15e;" horiz-adv-x="500" 
d="M361 529q0 28 -5.5 51.5t-18.5 40t-34.5 26t-52.5 9.5q-56 0 -87 -29.5t-31 -86.5q0 -50 25 -77t62.5 -43t81 -28.5t81 -33.5t62.5 -58t25 -102q0 -62 -20.5 -103t-52.5 -65t-71.5 -34t-77.5 -10q-63 0 -104.5 16t-66 46t-35 74.5t-10.5 101.5h88q0 -30 3 -59.5t16 -53.5
t40 -38.5t75 -14.5q26 0 49 9t39.5 25.5t26 39.5t9.5 52q0 38 -14.5 62t-38 40.5t-54 27t-62 21.5t-62 24.5t-54 35t-38 54.5t-14.5 82q0 25 7 58.5t29.5 64.5t63.5 52.5t109 21.5q103 0 150.5 -50t49.5 -149h-88zM148 -158q1 0 9 -2l18 -4.5t20.5 -4t16.5 -1.5q31 0 43 12
t12 29t-14.5 27t-32.5 10q-16 0 -25.5 -2.5t-12.5 -4.5l-15 18l59 87h42l-41 -60l2 -2q5 2 15 4t15 2q13 0 27 -4t26 -13t19.5 -23.5t7.5 -35.5q0 -19 -9 -35t-23.5 -27t-34 -17.5t-40.5 -6.5q-28 0 -55 5t-44 15z" />
    <glyph glyph-name="scedilla" unicode="&#x15f;" horiz-adv-x="407" 
d="M285 379q0 51 -16.5 78t-62.5 27q-10 0 -25 -2.5t-28.5 -10.5t-23.5 -24.5t-10 -44.5q0 -24 11.5 -39t30 -25t42 -17.5t48.5 -15.5q24 -8 47.5 -18t42 -26t30 -41.5t11.5 -65.5q0 -42 -13 -73.5t-36 -52.5t-55 -31.5t-69 -10.5q-68 0 -105.5 22t-55 52.5t-20.5 62.5
t-3 53h84q0 -24 4 -46.5t15 -40t30.5 -27.5t50.5 -10q10 0 25 3t29.5 13t24.5 27t10 46q0 27 -11.5 44.5t-30 29t-42 19.5t-47.5 16t-48 17.5t-42.5 25.5t-30 41.5t-11.5 67.5q0 37 13.5 65t37 46.5t54.5 27.5t66 9q58 0 91 -18t48.5 -44t19.5 -55.5t4 -53.5h-84zM106 -158
q1 0 9 -2l18 -4.5t20.5 -4t16.5 -1.5q31 0 43 12t12 29t-14.5 27t-32.5 10q-16 0 -25.5 -2.5t-12.5 -4.5l-15 18l59 87h42l-41 -60l2 -2q5 2 15 4t15 2q13 0 27 -4t26 -13t19.5 -23.5t7.5 -35.5q0 -19 -9 -35t-23.5 -27t-34 -17.5t-40.5 -6.5q-28 0 -55 5t-44 15z" />
    <glyph glyph-name="quotedbl" unicode="&#x22;" horiz-adv-x="407" 
d="M87 714h66v-254h-66v254zM254 714h66v-254h-66v254z" />
    <glyph glyph-name="exclam" unicode="!" horiz-adv-x="258" 
d="M83 714h92l-16 -528h-60zM83 96h92v-96h-92v96z" />
    <glyph glyph-name="uni018f" unicode="&#x18f;" horiz-adv-x="556" 
d="M415 412q-1 32 -4.5 74t-18 82.5t-41.5 64t-73 23.5q-34 0 -56.5 -12t-36 -32.5t-19.5 -48t-7 -57.5h-92q3 105 52.5 163.5t158.5 58.5q74 0 119 -32.5t70 -85.5t33 -119.5t8 -133.5q0 -68 -8 -134t-33 -119t-70 -85.5t-119 -32.5t-119 32.5t-70 85.5t-33 119t-8 134
q0 28 1 55h366zM416 334h-276q1 -49 5 -98.5t18.5 -90t41.5 -64t73 -23.5t73 23.5t41.5 64t18.5 90t5 98.5z" />
    <glyph glyph-name="uni0259" unicode="&#x259;" horiz-adv-x="444" 
d="M327 248h-210q1 -33 4.5 -67.5t14.5 -64t31.5 -47t52.5 -17.5q33 0 54 17.5t33 47t15.5 64t4.5 67.5zM326 314q-1 18 -4 47t-14.5 58.5t-32.5 47t-53 17.5q-41 1 -64 -26.5t-33 -78.5h-86q6 52 33 92.5t60 59t90 19.5q58 0 95.5 -23t59 -61.5t30 -89.5t8.5 -108
t-8.5 -108t-30.5 -89.5t-59 -61.5t-95 -23t-95.5 23t-59 61.5t-30 89.5t-8.5 108q0 27 1 46h296z" />
    </font>
</defs>
</svg>
