<svg id="Layer_1" data-name="Layer 1" xmlns="http://www.w3.org/2000/svg" viewBox="0 0 100 100"><defs><style>.cls-1{fill:none;stroke:#fff;stroke-linecap:round;stroke-linejoin:round;stroke-width:2px;}</style></defs><title>Bakery Manufacturers</title><circle class="cls-1" cx="52.2" cy="17.68" r="10.01"/><path class="cls-1" d="M23.94,63.15l5.89,34.52"/><path class="cls-1" d="M41.34,63.15l1.95,34.34"/><path class="cls-1" d="M58.71,63.15,56.77,97.3"/><path class="cls-1" d="M76.06,63.15,69.84,97.62"/><path class="cls-1" d="M67.36,50.93A150.47,150.47,0,0,1,45.89,63.07h-32a7.87,7.87,0,0,1-2-7.36c.79-2.83,2.17-6.52,8.18-10.13"/><path class="cls-1" d="M79.24,38.44c7.05,2.51,9,11.7,9.06,15.41.07,4.15-2.67,7.41-4.63,9.22H46.1"/><path class="cls-1" d="M71.83,25.15c3.61,0,7.44,5.54,7.92,7.91.7,3.46-.87,7.27-4.67,11.34"/><path class="cls-1" d="M41.9,40.68c-9.5,2.73-18.1,4.61-22.31,5.47C19,43.07,18.93,35,28.14,27.86"/><path class="cls-1" d="M62.17,22a52.43,52.43,0,0,1,9.66,3.2c.47.72.11.84,0,1.25-.47,1.48-3.42,5.55-20.53,11.36"/><path class="cls-1" d="M39.72,26.27l-1.84.34c-3.56.64-7,1.27-9.79,1.95.26-4.43,2.13-12.25,11.29-18.1a16.81,16.81,0,0,0,2,2.48c.41.42.76.75,1.06,1"/><path class="cls-1" d="M14.42,63.62l7.9,31.23a4.91,4.91,0,0,0,4.88,3.63H72.8a4.91,4.91,0,0,0,4.88-3.63l6.7-32.43"/><path class="cls-1" d="M57.47,9.2c3.41-6.92,8-7.68,9.78-7.68a9.82,9.82,0,0,1,4.64,1"/></svg>