<svg id="Layer_1" data-name="Layer 1" xmlns="http://www.w3.org/2000/svg" viewBox="0 0 275 459"><defs><style>.cls-1{fill:#1e1916;fill-rule:evenodd;}</style></defs><title>Bread Packaging</title><path class="cls-1" d="M44.22,310.9H38v36.68h6.24Zm0,82V373.2H38v19.71A24.6,24.6,0,0,0,62.56,417.5H161.2v-6.26H62.56A18.36,18.36,0,0,1,44.22,392.91Zm223.29,9.35a42.7,42.7,0,0,1-42.65,42.63H50.15A42.69,42.69,0,0,1,7.5,402.26V205.78a66.07,66.07,0,0,1,66-66h128a66.07,66.07,0,0,1,66,66ZM62.91,21.68l17.16,8.55,37,103h-3.57Zm102.45-2.11L185,29.32,153.9,133.21h-4.46ZM140.73,133.21l-1.1-103.42,19-9.42-15.8,112.84Zm-8.6,0L113.94,20.53,133.05,30l1.1,103.17Zm-8.06,0L86.83,29.53l20.26-10.1,18.37,113.78Zm41,0h-4.29L191.54,30.55,210,21.4Zm36.46,0H172.17L222.54,7.81l-33,16.39L162.78,10.93,136.09,24.2,109.41,10.93,82.73,24.2,49.24,7.52l57,125.69H73.49A72.65,72.65,0,0,0,.91,205.78V402.26a49.29,49.29,0,0,0,49.24,49.22H224.86a49.28,49.28,0,0,0,49.23-49.22V205.78A72.64,72.64,0,0,0,201.53,133.21Z"/></svg>