<svg id="Layer_1" data-name="Layer 1" xmlns="http://www.w3.org/2000/svg" viewBox="0 0 100 100"><defs><style>.cls-1{fill:none;stroke:#000;stroke-linecap:round;stroke-linejoin:round;stroke-width:2px;}</style></defs><title>Bread Manufacturers</title><path class="cls-1" d="M97.94,76.64C97.85,75.55,95.08,50,50,50S2.16,75.54,2.06,76.63v.26c0,17.26,16.16,17.26,26.85,17.26H71.1c10.69,0,26.85,0,26.85-17.26Z"/><line class="cls-1" x1="39.16" y1="65.15" x2="43.6" y2="50.59"/><path class="cls-1" d="M47.71,65.15l4.58-15"/><path class="cls-1" d="M56.27,66.57l4.57-15"/><path class="cls-1" d="M35.45,36.15c9.1-10.1-9.1-20.2,0-30.3"/><path class="cls-1" d="M49.71,36.15c9.1-10.1-9.1-20.2,0-30.3"/><path class="cls-1" d="M64,36.15c9.1-10.1-9.1-20.2,0-30.3"/></svg>