<svg id="Layer_1" data-name="Layer 1" xmlns="http://www.w3.org/2000/svg" viewBox="0 0 275 459"><defs><style>.cls-1{fill:#1e1916;fill-rule:evenodd;}</style></defs><title>Cookie Pack</title><path class="cls-1" d="M172,406.63V295.18h96.49V406.63Zm96.49-228.36V288.76H172V178.27Zm0-127.5V171.86H172V50.77ZM165.56,44.35V413H274.9V44.35ZM19.71,395.61h81.46v-6.42H19.71Zm0-326.76h81.46V62.43H19.71Zm95.12,340.69-2.06-2-5.27,5.18-5.26-5.19L97,412.69l-5.24-5.22-5.2,5.2-5.2-5.2-5.26,5.22-5.22-5.22-5.22,5.2-5.24-5.2-5.2,5.2L50,407.47l-5.2,5.2-5.22-5.2-5.21,5.2-5.18-5.21L24,412.65l-5.17-5.19-5.17,5.19L8.5,407.46l-2,2V49.57l2,2,5.18-5.2,5.17,5.23L24,46.35l5.18,5.2,5.18-5.2,5.21,5.18,5.22-5.19L50,51.55l5.21-5.2,5.2,5.18,5.24-5.19,5.22,5.19,5.22-5.19,5.26,5.19,5.2-5.19,5.2,5.19L97,46.34l5.24,5.18,5.26-5.21,5.27,5.21,2.06-2ZM107.5,37.28l-5.26,5.21L97,37.27l-5.22,5.2-5.22-5.2-5.21,5.2-5.23-5.2-5.22,5.2-5.22-5.2-5.22,5.2-5.22-5.21L50,42.47l-5.2-5.2-5.22,5.2-5.21-5.21L29.2,42.45,24,37.23l-5.17,5.22-5.17-5.19L8.5,42.45.1,34V425l8.4-8.42,5.18,5.2,5.17-5.2,5.17,5.2,5.18-5.2,5.18,5.2,5.21-5.21,5.22,5.2,5.2-5.2,5.21,5.2,5.22-5.2,5.22,5.2,5.22-5.2,5.22,5.2,5.23-5.2,5.21,5.2,5.22-5.2,5.22,5.2,5.26-5.21,5.26,5.2,5.27-5.2,8.47,8.37V34.12l-8.47,8.37Z"/></svg>