<svg id="Layer_1" data-name="Layer 1" xmlns="http://www.w3.org/2000/svg" viewBox="0 0 100 100"><defs><style>.cls-1{fill:none;stroke:#000;stroke-linecap:round;stroke-linejoin:round;stroke-width:2px;}</style></defs><title>Dairy &amp;amp; Oil Manufacturers</title><path class="cls-1" d="M66.34,8.62V20.8h0V34.69a2.8,2.8,0,0,1-5.6,0V24.43a5,5,0,0,0-10.06,0v3a2.8,2.8,0,1,1-5.6,0V8.62"/><path class="cls-1" d="M56,7.78H30a3.2,3.2,0,1,1,0-6.4H69.61a3.2,3.2,0,1,1,0,6.4H62.13"/><path class="cls-1" d="M13.8,24.71A23.42,23.42,0,0,1,25.16,32.1"/><path class="cls-1" d="M66.82,23.69,77,36.88a18.61,18.61,0,0,1,2.38,4.94H19.5a18.34,18.34,0,0,1,2.39-4.94l10-14.58h12.4"/><path class="cls-1" d="M74.78,32.05a23.48,23.48,0,0,1,11.42-7.3"/><path class="cls-1" d="M19.5,73.05V42.15H79.38V88.06A10.56,10.56,0,0,1,68.82,98.62H30.06A10.56,10.56,0,0,1,19.5,88.06V81.34"/><line class="cls-1" x1="32.07" y1="22.06" x2="32.07" y2="7.78"/></svg>