<svg id="Layer_1" data-name="Layer 1" xmlns="http://www.w3.org/2000/svg" viewBox="0 0 100 100"><defs><style>.cls-1{fill:none;stroke:#000;stroke-linecap:round;stroke-linejoin:round;stroke-width:2px;}</style></defs><title>Household &amp;amp; Hygeine Manufacturers</title><path class="cls-1" d="M79.39,33.21H55.88a8.4,8.4,0,0,0-8.4,8.39v6.72h0v42a8.4,8.4,0,0,0,8.4,8.4H79.39a8.4,8.4,0,0,0,8.39-8.4V41.6A8.39,8.39,0,0,0,79.39,33.21Z"/><path class="cls-1" d="M55.88,33.21V29.85a5,5,0,0,1,5-5H74.35a5,5,0,0,1,5,5v3.36"/><path class="cls-1" d="M72.67,11.38V24.81"/><path class="cls-1" d="M62.59,24.81V11.38"/><path class="cls-1" d="M77.71,4.66v5A1.68,1.68,0,0,1,76,11.38H47a2.89,2.89,0,0,1-.82-5.66L57.37,2.36A25.37,25.37,0,0,1,64.61,1.3h9.74a3.38,3.38,0,0,1,3.36,3.36Z"/><path class="cls-1" d="M35.46,51.39a8.82,8.82,0,0,1,.27,2,11.76,11.76,0,0,1-23.51,0c0-4.5,5.64-14,9.1-18.47a3.35,3.35,0,0,1,5.3,0,66,66,0,0,1,5.68,8.88"/><circle id="Oval" class="cls-1" cx="23.97" cy="19.77" r="5.04"/><path class="cls-1" d="M67.92,64.58c2.26-3.39,7.91-5.65,10.76-5.73,1.67,3.47,2.8,11.38-6.24,14.77"/><path class="cls-1" d="M70.44,67.87l-2,2.1"/><path class="cls-1" d="M65.06,74.94c-2.68.89-6.14-.57-8.23-3.67-1.71-2.57-1.51-8.73-1.14-12.42,4.08,1.23,9.56,3.5,11.15,5.87,1.63,2.15,2.21,7.77-1.18,10"/><path class="cls-1" d="M62,68.37,65.57,73"/><path class="cls-1" d="M22.7,56.78A3.67,3.67,0,0,1,20.05,55a5.73,5.73,0,0,1,.39-4.24"/><line class="cls-1" x1="79.83" y1="86.05" x2="87.57" y2="86.05"/><line class="cls-1" x1="48.02" y1="86.05" x2="72.03" y2="86.05"/><line class="cls-1" x1="48.02" y1="46.5" x2="87.57" y2="46.5"/></svg>