<svg xmlns="http://www.w3.org/2000/svg" viewBox="0 0 492.5 241.95"><defs><style type="text/css">.cls-1,.cls-2{fill:#fff;}.cls-1{fill-rule:evenodd;}</style>
</defs><g id="Layer_1"><path class="cls-1" d="M167.7,199.14l10.12-20.25c2.07-4.1,4.37-6.13,6.33-6.4,2.63-.37,3.83,1.37,3.82,4.13,0,7-8,20.79-18.83,22.32Zm-35.33,24.25v-.74a10.92,10.92,0,0,1,9.56-10.47c4.29-.61,7.63,1.11,10.85,3.78.34-.56.61-1.18,1-1.79L159.32,203c-5.7-2.33-8.86-7.68-8.84-13.77,0-5.08,2.23-10.53,7.24-15.06l2.25,4.11a14.29,14.29,0,0,0-4.5,10.12,10.31,10.31,0,0,0,6.23,9.85l10.89-21.74c3.12-6.29,7.57-9.81,11.35-10.44l.4-.06c5.07-.6,9,3.23,9,9.92a24.23,24.23,0,0,1-2.83,10.54c-5.51,11.17-14,16.46-21.42,17.51a25.25,25.25,0,0,1-4,.23L159,216.6c-.6,1.26-1.28,2.37-1.88,3.38,1.27,1.29,2.47,2.62,3.91,3.88,8.36,8,12.87,12,18.16,11.28a14.51,14.51,0,0,0,9.67-5.5l3.41,3.46a19.06,19.06,0,0,1-13.24,8c-9.85,1.38-18.17-9-25.68-16.31-3.61,3.79-7.63,5.78-11.06,6.26C135.76,232,132.54,228,132.37,223.39Zm72.3-53.17a4.94,4.94,0,0,0-4,5,3.5,3.5,0,0,0,4,3.78,5,5,0,0,0,4.11-4.92A3.58,3.58,0,0,0,204.67,170.22Zm67.59-9.51a5,5,0,0,0-4,5c0,2.43,1.72,4.1,4,3.78a5,5,0,0,0,4.11-4.92A3.59,3.59,0,0,0,272.26,160.71Zm26.63,27.71a7.52,7.52,0,0,1-2.81-.14l4.52-9.12c1.83-3.64,4.3-5.58,6-5.83,2.12-.29,3.21,1.86,1,6.44l-1,2C304.23,186.45,301.32,188.08,298.89,188.42Zm56.79-41.85h-6.42l-10.33,20.57a6.31,6.31,0,0,0-6.35-3c-3.76.53-9,4.44-12,10.36l-6.73,13.42h0s0,0,0,0l-.46.62c-5,7-11.48,12.94-16.41,13.63-4.28.6-6.84-2-3.59-8.5l.68-1.4a10,10,0,0,0,4.35.27c4.45-.62,10-3.83,13.86-11.51l1-2c3.77-7.47.17-12.15-5.54-11.36s-10.11,4.59-13.1,10.53l-6.75,13.44-.45.59c-5.05,7-9.95,12.72-13,13.15-1.55.22-2.44-.83-.83-4l15-30.31,5.72-.8,2-3.9-5.79.81,6.6-13.22-7,1-6.56,13.22-6.32.88-2,3.9,6.39-.9-11,22h0l-.49.64c-5.05,7-9.95,12.72-13,13.15-1.54.22-2.4-.83-.79-4l15-30.31-7,1-11,22h0L253,197c-5,7-10,12.72-13.06,13.15-1.55.22-2.41-.83-.79-4l10.11-20.49c3-6.14.14-9.83-3.73-9.28s-7.87,3.82-12.54,10.88c2.45-5.65-.36-9.07-4.05-8.55s-7.59,3.58-12,10.21l4.18-8.42-7,1-11,22-.42.6c-5.05,7-10,12.72-13.07,13.15-1.54.22-2.41-.84-.79-4l15-30.31-7,1-14.06,28.22c-2.94,6-.89,10.84,4.76,10,2.81-.4,5.85-2.42,8.9-5.33l-1.8,3.61,7.07-1,8.15-16.35c7.86-13,13.22-17.8,15.46-18.12,1.46-.21,1.61,1.48.3,4.09l-14.48,29.06,7.15-1,7.84-15.88c8-13.36,13.49-18.3,15.77-18.62,1.47-.21,1.62,1.49.3,4.11L233.06,205c-2.95,6-.89,10.84,4.75,10.05,3.51-.49,7.36-3.52,11.15-7.63-.11,3.49,2.11,5.76,6.1,5.2,3.52-.49,7.37-3.52,11.15-7.63-.12,3.5,2.08,5.78,6.07,5.21,4.17-.58,8.78-4.67,13.19-9.91.31,4.63,3.84,7.52,9.44,6.73,5-.71,10.07-4.11,14.55-8.57h0c-.32,3.75,1.89,6.26,6.06,5.67,2.82-.39,6.32-2.83,9.66-6.26.34,2.83,2.48,4.56,6.05,4.06,5.75-.81,12.41-8.4,18.22-16.48a5.26,5.26,0,0,0-2.63-2.22l-.45.63c-5.05,7-10,12.72-13.06,13.15-1.54.22-2.41-.83-.79-4Zm-38.09,52.68c-1.54.22-2.4-.84-.78-4l9.77-19.71c1.66-3.31,4-5,5.86-5.28,2.35-.33,3.85,1.7,1.92,5.78l.07,0-5.31,10.61C324.86,194.66,320.56,198.83,317.59,199.25Zm-176,26.12c-2.75.39-4-1.18-4-3a4.33,4.33,0,0,1,3.69-4.29c2.55-.37,5.22.92,7.92,3A12.36,12.36,0,0,1,141.58,225.37Z" /><path class="cls-2" d="M490.18,98.25l-8.41,2.5q-2-8.46-7.57-8.45a5.53,5.53,0,0,0-4,1.58,5.66,5.66,0,0,0-1.7,4.2,8.25,8.25,0,0,0,2.37,5.71A73.72,73.72,0,0,0,478.4,110a56.57,56.57,0,0,1,8.5,7.63,16,16,0,0,1,3.66,10.44,13.72,13.72,0,0,1-4.2,10.33q-4.29,4.11-11.37,4.12-14.58,0-17.28-16l8.42-2.44q1.74,10.21,8.86,10.2a6.27,6.27,0,0,0,4.75-1.83,6.39,6.39,0,0,0,1.74-4.66,8.12,8.12,0,0,0-2.2-5.5,47.31,47.31,0,0,0-6.25-5.58c-4.28-3.33-6.83-5.42-7.7-6.24q-5.91-5.72-5.91-12.45a13,13,0,0,1,4.79-10.62,15.09,15.09,0,0,1,10-3.37q12.27,0,15.94,14.19M454.3,84.9V93H437.37V108h12.49v8.11H437.37V133.6H454.3v8.11H428.54V84.9Zm-34.38,0v56.81H411.1V84.9ZM381,110.29h3.22a14.27,14.27,0,0,0,5.15-.67c2.58-1.11,3.87-3.78,3.87-8,0-3.11-.73-5.37-2.16-6.79a5.25,5.25,0,0,0-3-1.57,24.36,24.36,0,0,0-3.82-.26H381Zm0,8.11v23.31h-8.82V84.9H386q7.31,0,11.23,3.41,5.08,4.41,5.08,12.86,0,10.81-7.66,14.77L403,141.71h-9.25l-7.53-23.31ZM356.31,93v48.7h-8.82V93h-11V84.9h30.85V93Zm-24,5.24-8.41,2.5q-2-8.46-7.58-8.45a5.52,5.52,0,0,0-4,1.58,5.66,5.66,0,0,0-1.7,4.2,8.25,8.25,0,0,0,2.37,5.71,73.72,73.72,0,0,0,7.53,6.24,56.57,56.57,0,0,1,8.5,7.63,16,16,0,0,1,3.66,10.44,13.72,13.72,0,0,1-4.2,10.33q-4.29,4.11-11.37,4.12-14.58,0-17.28-16l8.41-2.44q1.75,10.21,8.87,10.2a6.27,6.27,0,0,0,4.75-1.83,6.39,6.39,0,0,0,1.74-4.66,8.17,8.17,0,0,0-2.2-5.5,47.31,47.31,0,0,0-6.25-5.58c-4.28-3.33-6.83-5.42-7.7-6.24q-5.91-5.72-5.91-12.45a13,13,0,0,1,4.79-10.62,15.08,15.08,0,0,1,10-3.37Q328.66,84.06,332.33,98.25ZM285,84.9h8.83v38.5c0,4.58-.4,8-1.21,10.2q-3.24,9-13.81,9-7.89,0-11.75-5.11a14.44,14.44,0,0,1-2.79-6.62,51.86,51.86,0,0,1-.49-7.42V84.9h8.82v39.92c0,3.21.41,5.53,1.25,7a6.09,6.09,0,0,0,9.9,0c.84-1.39,1.25-3.71,1.25-7Zm-50.82,48.7h4.29c3,0,5.19-.92,6.48-2.7a9.14,9.14,0,0,0,1.59-4,39.58,39.58,0,0,0,.33-5.37V105.09a31.82,31.82,0,0,0-.41-5.81A9.36,9.36,0,0,0,245,95.71c-1.29-1.78-3.47-2.67-6.48-2.7h-4.29Zm-8.82,8.11V84.9h13.89q16.56,0,16.44,17.77v21.27q.13,17.77-16.44,17.77ZM216.69,84.9v56.81h-7.91l-15.22-37.79v37.79h-8.37V84.9H194l14.31,35.33V84.9Zm-40.12,0v56.81h-8.83V84.9Zm-52.2,18.23v20.36a32.25,32.25,0,0,0,.32,5.58q1.22,5.24,6.37,5.24c2.64,0,4.49-1,5.54-3.08a9,9,0,0,0,1-3.67c.09-1.1.13-2.47.13-4.07V103.13a32.62,32.62,0,0,0-.32-5.63c-.79-3.47-2.89-5.2-6.34-5.2-2.66,0-4.52,1-5.57,3.08a8.92,8.92,0,0,0-1,3.63C124.41,100.14,124.37,101.52,124.37,103.13Zm22.18-.17v20.7a34.59,34.59,0,0,1-.76,7.9,15.43,15.43,0,0,1-2.48,5.54c-2.65,3.63-6.72,5.45-12.25,5.45s-9.63-1.82-12.28-5.45a16,16,0,0,1-2.7-6.5,43.06,43.06,0,0,1-.54-6.94V103a34.47,34.47,0,0,1,.76-7.9,15.4,15.4,0,0,1,2.48-5.55q4-5.45,12.28-5.45c5.53,0,9.6,1.82,12.25,5.45A15.2,15.2,0,0,1,146,96,43,43,0,0,1,146.55,103ZM98.68,116.69H86.23v25H77.41V84.9h8.82v23.68H98.68V84.9h8.82v56.81H98.68ZM70.9,98.25l-8.41,2.5q-2-8.46-7.57-8.45a5.51,5.51,0,0,0-4,1.58,5.63,5.63,0,0,0-1.71,4.2,8.29,8.29,0,0,0,2.37,5.71A74.94,74.94,0,0,0,59.12,110a56.06,56.06,0,0,1,8.5,7.63,16,16,0,0,1,3.67,10.44,13.73,13.73,0,0,1-4.21,10.33c-2.85,2.74-6.65,4.12-11.37,4.12q-14.57,0-17.27-16l8.41-2.44q1.74,10.21,8.86,10.2a6.25,6.25,0,0,0,4.75-1.83,6.39,6.39,0,0,0,1.75-4.66,8.17,8.17,0,0,0-2.2-5.5,48.22,48.22,0,0,0-6.26-5.58c-4.27-3.33-6.83-5.42-7.7-6.24q-5.89-5.72-5.91-12.45a13,13,0,0,1,4.79-10.62,15.11,15.11,0,0,1,10-3.37Q67.23,84.06,70.9,98.25Zm-60.14,4.88v20.36a31,31,0,0,0,.33,5.58c.81,3.49,2.92,5.24,6.36,5.24,2.64,0,4.49-1,5.54-3.08a9,9,0,0,0,1-3.67c.08-1.1.13-2.47.13-4.07V103.13a32.31,32.31,0,0,0-.33-5.63q-1.17-5.2-6.34-5.2c-2.65,0-4.52,1-5.57,3.08a8.92,8.92,0,0,0-1,3.63C10.8,100.14,10.76,101.52,10.76,103.13ZM32.94,103v20.7a35.24,35.24,0,0,1-.75,7.9,15.44,15.44,0,0,1-2.49,5.54q-4,5.44-12.25,5.45T5.18,137.1a15.71,15.71,0,0,1-2.7-6.5,42,42,0,0,1-.54-6.94V103a34.54,34.54,0,0,1,.75-7.9,15.41,15.41,0,0,1,2.49-5.55q4-5.45,12.27-5.45T29.7,89.51A15,15,0,0,1,32.4,96,43,43,0,0,1,32.94,103Z" /><path class="cls-1" d="M246.25,5,252,7.12l5.79,2.1,3.08,5.33L264,19.88,262.91,26,261.84,32l-4.72,4-4.71,4H240.09l-4.71-4-4.72-4L229.59,26l-1.06-6.07,3.07-5.33,3.08-5.33,5.79-2.1Zm0-4.27a30.54,30.54,0,1,1-30.54,30.53A30.54,30.54,0,0,1,246.25.74Z" /><path class="cls-2" d="M417,165.48l.42.53h.79v.21h-3.83V166h.78l.44-.53v-.92L414,161.9l-.46-.51H413v-.22h3.32v.22h-.39l-.31.51,1.21,2.11,1.33-1.89-.61-.73h-.42v-.22H420v.22h-.61l-.91.73L417,164.19Zm-6.52-4.31v2.41h-.16l-1-2.19h-1.06v4.13l.43.49h1.07v.21h-4.44V166h1.07l.42-.49v-4.13h-1l-1,2.19h-.16v-2.41Zm-15.75,5.05V166h.91l.42-.49v-3.64l-.42-.49h-.91v-.22h6.58V163h-.15l-1-1.61h-2.2l-.41.47v1.76h1l.79-1.17h.15v2.59h-.15l-.79-1.2h-1v1.67l.39.45h2l1.46-2h.15l-.12,2.23Zm-9.42,0V166h.62l.65-.88v-3.4l-.44-.34h-.83v-.22h2.41l3.63,3.31V162.2l-.61-.81h-.81v-.22h2.94v.22h-.69l-.6.81v4h-.37l-4.39-4v2.93l.63.88h.85v.21Zm-3.56-.74.42.53h.7v.21H379.2V166h.69l.43-.53V161.9l-.43-.51h-.69v-.22h3.68v.22h-.7l-.42.51Zm-12.24.74V166h.63l.65-.88v-3.4l-.44-.34h-.84v-.22h2.41l3.63,3.31V162.2l-.61-.81h-.81v-.22h2.94v.22h-.69l-.59.81v4h-.37l-4.4-4v2.93l.64.88h.84v.21Z" /><path class="cls-2" d="M464.51,166.22V166h.63l.65-.88v-3.4l-.44-.34h-.84v-.22h2.41l3.63,3.31V162.2l-.61-.81h-.81v-.22h2.94v.22h-.69l-.59.81v4h-.37l-4.4-4v2.93l.64.88h.84v.21Zm-9.41,0V166H456l.42-.49v-3.64l-.42-.49h-.92v-.22h6.59V163h-.15l-1-1.61h-2.19l-.41.47v1.76h1l.79-1.17h.15v2.59h-.15l-.79-1.2h-1v1.67l.39.45h2l1.46-2h.15l-.12,2.23Zm-5.5.16-2.4-4.47-.73-.52H446v-.22h3.73v.22h-.6l-.32.52,1.5,2.92,1.34-2.71-.58-.73h-.54v-.22h2.59v.22h-.41l-.78.73-2.12,4.26Zm-12.77-.16V166h.92l.41-.49v-3.64l-.41-.49h-.92v-.22h6.58V163h-.15l-1-1.61H440l-.42.47v1.76h1l.78-1.17h.16v2.59h-.16l-.78-1.2h-1v1.67l.39.45h2l1.46-2h.15l-.13,2.23Zm-7.58.1v-1.77h.15a2.59,2.59,0,0,0,1.08,1.15,3.18,3.18,0,0,0,1.67.44,1.92,1.92,0,0,0,1.08-.27.77.77,0,0,0,.41-.69.59.59,0,0,0-.28-.53,2.84,2.84,0,0,0-1.09-.27,6.83,6.83,0,0,1-2.53-.6,1.28,1.28,0,0,1-.62-1.16,1.38,1.38,0,0,1,.58-1.15,2.45,2.45,0,0,1,1.54-.44,4.57,4.57,0,0,1,1.05.12,3.73,3.73,0,0,1,.95.36l.47-.44H434v1.52h-.16a2.71,2.71,0,0,0-1.06-1,2.93,2.93,0,0,0-1.43-.34,2.11,2.11,0,0,0-1.06.23.7.7,0,0,0-.38.62c0,.44.62.74,1.88.88h0a4.48,4.48,0,0,1,2,.57,1.34,1.34,0,0,1,.58,1.19,1.42,1.42,0,0,1-.57,1.17,2.36,2.36,0,0,1-1.51.46,4.49,4.49,0,0,1-1.07-.14,7.93,7.93,0,0,1-1.13-.42l-.62.5Z" /></g></svg>