<svg id="Layer_1" data-name="Layer 1" xmlns="http://www.w3.org/2000/svg" viewBox="0 0 275 459"><defs><style>.cls-1{fill:#1e1916;fill-rule:evenodd;}</style></defs><title>Spout Pouch</title><path class="cls-1" d="M267.24,434.14c-4.65,1.11-15.12,3.47-29.56,6.08V61.7H60.47l38.76-28h168ZM58,445.7v-377H230.47V441.48C188.32,448.68,119.3,456.55,58,445.7ZM15.79,94l16.1-11.64v0L36.55,79,50.74,68.73V444.34a228.44,228.44,0,0,1-34.95-9.85Zm50-59.82,7.38,9.21L33.24,72.67l-7.38-9.22ZM35.52,10.73,53.86,33.65,29.08,51.81,10.72,28.88Zm61.31,16L79.17,39.48l-12-15-7.25,5.31L36.85,1,.55,27.58,23.6,56.35l-7.92,5.8,11.8,14.71L10,89.48l-1.43,1V439.21l2.25.88C45.27,453.53,85.81,458,124.55,458c76.63,0,146.17-17.51,147.22-17.78l2.68-.68V26.71Z"/></svg>