<svg id="Layer_1" data-name="Layer 1" xmlns="http://www.w3.org/2000/svg" viewBox="0 0 100 100"><defs><style>.cls-1,.cls-2{fill:none;stroke:#fff;stroke-linecap:round;stroke-width:2px;}.cls-1{stroke-miterlimit:10;}.cls-2{stroke-linejoin:round;}</style></defs><title>Wheat, Pulses &amp;amp; Rice Manufacturers</title><path class="cls-1" d="M23.49,20a6.72,6.72,0,0,1-.11-1.1A6.63,6.63,0,0,1,30,12.28a6.76,6.76,0,0,1,1.41.15A1.84,1.84,0,0,0,33.59,11s0-.08,0-.11a10,10,0,0,1,19.17-2A1.83,1.83,0,0,0,55.13,10a1.74,1.74,0,0,0,.63-.4,12.3,12.3,0,0,1,20.85,8.86A11.72,11.72,0,0,1,76.5,20"/><rect class="cls-2" x="15.28" y="20.34" width="69.43" height="8.25"/><path class="cls-1" d="M81.08,28.93l3.23,47.68A10.15,10.15,0,0,0,88.83,85l.92.62a6.52,6.52,0,0,1-3.62,11.93H13.88a6.52,6.52,0,0,1-3.63-11.93l.93-.62a10.17,10.17,0,0,0,4.51-8.39l3.22-47.68"/><path class="cls-1" d="M21.73,85.31h28.7"/><path class="cls-1" d="M57.84,85.31h7.64"/><line class="cls-1" x1="50" y1="42.28" x2="50" y2="68.74"/><line class="cls-1" x1="50" y1="63.22" x2="56.61" y2="56.61"/><line class="cls-1" x1="50" y1="63.22" x2="43.39" y2="56.61"/><line class="cls-1" x1="50" y1="54.96" x2="55.51" y2="49.45"/><line class="cls-1" x1="50" y1="54.96" x2="44.49" y2="49.45"/><line class="cls-1" x1="50" y1="48.34" x2="53.86" y2="44.49"/><line class="cls-1" x1="50" y1="48.34" x2="46.14" y2="44.49"/></svg>