<svg id="Layer_1" data-name="Layer 1" xmlns="http://www.w3.org/2000/svg" viewBox="0 0 275 459"><defs><style>.cls-1{fill:#1e1916;fill-rule:evenodd;}</style></defs><title>Zipper Stand Up Pouch</title><path class="cls-1" d="M108.93,36.27h16.64a11.93,11.93,0,1,1,23.86,0h16.64a4.22,4.22,0,1,1,0,8.44H108.93a4.22,4.22,0,0,1,0-8.44m0,16.5h57.14a12.3,12.3,0,1,0,0-24.59H155.81a20,20,0,0,0-36.6,0H108.93a12.3,12.3,0,1,0,0,24.59ZM218.61,435.82,251.68,74.28h2.72v346.3A258.15,258.15,0,0,1,218.61,435.82ZM60.29,439.66,32.78,74.28h211.6l-33.29,364C173.73,450.13,117.67,459.73,60.29,439.66ZM20.61,74.28h4.9L52.79,436.82a203.94,203.94,0,0,1-32.18-16.1ZM254.4,7.76V67H20.61V7.76ZM13.35.5V424.74L15,425.8c38.89,24.51,79.08,32.7,115.37,32.7,72,0,128.59-32.12,129.44-32.64l1.8-1.05V.5Z"/></svg>